<?xml version="1.0" encoding="UTF-8"?>
<svg id="Layer_1" data-name="Layer 1" xmlns="http://www.w3.org/2000/svg" viewBox="0 0 2880 1920">
  <defs>
    <style>
      .cls-1 {
        fill: #fff;
      }

      .cls-2 {
        fill: #01247d;
      }

      .cls-3 {
        fill: #cf142b;
      }
    </style>
  </defs>
  <g>
    <rect class="cls-2" width="2880" height="1920"/>
    <polygon class="cls-1" points="2880 672.08 1728.01 672.08 1728.01 0 1152.02 0 1152.02 672.08 0 672.08 0 1248.13 1152.02 1248.13 1152.02 1920 1728.01 1920 1728.01 1248.13 2880 1248.13 2880 672.08"/>
    <polygon class="cls-1" points="2880 1699.52 330.47 0 0 0 0 222.37 2547.01 1920 2880 1920 2880 1699.52"/>
    <polygon class="cls-1" points="0 1699.52 2549.46 0 2880 0 2880 222.37 332.98 1920 0 1920 0 1699.52"/>
  </g>
  <polygon class="cls-3" points="2880 792.06 1607.96 792.06 1607.96 0 1271.94 0 1271.94 792.06 0 792.06 0 1127.94 1271.94 1127.94 1271.94 1920 1607.96 1920 1607.96 1127.94 2880 1127.94 2880 792.06"/>
  <polygon class="cls-3" points="2880 1914.46 2880 1762.79 2105.96 1248.13 1877.97 1248.13 2880 1914.46"/>
  <polygon class="cls-3" points="2880 0 2652.29 0 1728.01 614.64 1728.01 672.08 1869.9 672.08 2880 .11 2880 0"/>
  <polygon class="cls-3" points="1002.38 1248.13 0 1914.57 0 1920 219.92 1920 1152.02 1300.06 1152.02 1248.13 1002.38 1248.13"/>
  <polygon class="cls-3" points="0 1.26 0 152.82 780.47 672.08 1008.53 672.08 0 1.26"/>
</svg>