<?xml version="1.0" encoding="UTF-8"?>
<svg id="Layer_1" data-name="Layer 1" xmlns="http://www.w3.org/2000/svg" viewBox="0 0 2880 1920">
  <defs>
    <style>
      .cls-1 {
        fill: #cdcccb;
      }

      .cls-1, .cls-2, .cls-3, .cls-4, .cls-5, .cls-6, .cls-7, .cls-8, .cls-9, .cls-10, .cls-11, .cls-12, .cls-13, .cls-14 {
        stroke: #000;
      }

      .cls-1, .cls-2, .cls-3, .cls-4, .cls-5, .cls-6, .cls-7, .cls-8, .cls-9, .cls-10, .cls-11, .cls-12, .cls-13, .cls-14, .cls-15 {
        stroke-width: .86px;
      }

      .cls-2 {
        fill: #295eab;
      }

      .cls-16 {
        fill: #c52127;
      }

      .cls-3 {
        fill: #eb72a8;
      }

      .cls-4, .cls-5 {
        stroke-linejoin: round;
      }

      .cls-4, .cls-6, .cls-17, .cls-15 {
        fill: #c8b32e;
      }

      .cls-5, .cls-8 {
        fill: #ab1f24;
      }

      .cls-18, .cls-12 {
        fill: #048e6f;
      }

      .cls-19 {
        fill: #ffc40b;
      }

      .cls-9 {
        fill: #da4546;
      }

      .cls-10 {
        fill: #fff;
      }

      .cls-11, .cls-14 {
        fill: none;
      }

      .cls-20 {
        fill: #3c57a6;
      }

      .cls-13 {
        fill: #ffd590;
      }

      .cls-14 {
        stroke-linecap: round;
      }

      .cls-15 {
        stroke: #c8b32e;
      }
    </style>
  </defs>
  <rect class="cls-16" y="0" width="2880" height="1920"/>
  <rect class="cls-19" y="480" width="2880" height="960"/>
  <g id="coa">
    <g id="supporters">
      <g id="crown_left" data-name="crown left">
        <path class="cls-5" d="M645.08,853.4s-1.96,0-3.03-.61c-1.08-.61-4.34-3.69-4.34-3.69l-2.61-1.88-2.38-3.26s-2.8-4.53-1.54-8.03c1.31-3.49,3.49-4.72,5.45-5.76,1.96-1,6.07-2.27,6.07-2.27,0,0,3.26-1.42,4.34-1.61,1.08-.23,4.99-1.23,4.99-1.23,0,0,1.08-.61,2.15-1.04,1.11-.42,2.61-.42,3.49-.61,.84-.23,3.03-.92,4.34-1,2-.08,5.22,.38,6.3,.38s4.76,.19,6.3,.19,6.91-.42,8.45-.42,2.61-.19,4.34,0c1.73,.23,4.76,1.23,5.64,1.65,.88,.42,6.07,2.27,8.03,2.88,1.96,.61,6.72,1.42,8.91,2.46,2.15,1.04,3.49,2.76,4.57,4.22,1.08,1.42,1.31,3,1.73,4.03,.42,1,.42,3.23,0,4.26-.42,1-1.96,3.11-1.96,3.11l-2.38,3.92-3.03,2.46s-2.19,2.07-3.92,1.84c-1.73-.15-19.32-3.3-30.6-3.3s-29.34,3.3-29.34,3.3h.04Z"/>
        <g>
          <ellipse class="cls-6" cx="674.53" cy="828.21" rx="5.3" ry="9.6"/>
          <ellipse class="cls-6" cx="674.61" cy="828.21" rx="2.46" ry="8.83"/>
          <ellipse class="cls-17" cx="674.61" cy="818.07" rx="3.57" ry="3.34"/>
          <path class="cls-6" d="M679.53,816.92v2.23h-9.72v-2.23h3.61v-5.07h-2.38v-2.19h2.38v-2.19h2.3v2.19h2.38v2.19h-2.38v5.07h3.8"/>
          <path class="cls-11" d="M675.61,814.85c1.9,.5,3.01,2.34,2.48,4.12-.53,1.78-2.5,2.82-4.4,2.32-1.9-.5-3.01-2.34-2.48-4.12,.34-1.13,1.28-2.01,2.48-2.32"/>
          <path class="cls-6" d="M674.61,852.79h-18.47l-.42-4.53-.88-4.72-.88-5.88c-5.11-6.72-9.79-11.14-11.37-10.18,.38-1.23,.84-2.15,1.8-2.73,4.53-2.69,13.86,3.76,20.89,14.36,.61,.96,1.23,1.92,1.77,2.88h15.24c.54-.96,1.15-1.92,1.77-2.88,6.99-10.6,16.36-17.05,20.85-14.36,1,.58,1.42,1.5,1.8,2.73-1.57-.92-6.22,3.46-11.37,10.18l-.88,5.88-.88,4.72-.38,4.53h-18.59Z"/>
          <path class="cls-11" d="M643.39,827.29c3.49-2.04,11.6,4.38,18.16,14.36m44.35-14.36c-3.49-2.04-11.56,4.38-18.16,14.36"/>
        </g>
        <g id="crown_pt1" data-name="crown pt1">
          <path class="cls-6" d="M647.35,861.12c-.77-2.19-2.23-4.15-2.23-4.15,7.49-2.19,17.89-3.57,29.45-3.61,11.56,.04,22.08,1.42,29.53,3.61,0,0-.84,1.46-2,3.49-.65,1.15-1.5,3.11-1.46,3.11-6.72-2.07-15.44-3.11-26.11-3.15-10.71,.04-20.97,1.34-26.34,3.3,.08,0-.38-1.23-.88-2.61h.04"/>
          <path class="cls-6" d="M674.57,870.64c9.33-.04,19.62-1.46,23.42-2.42,2.53-.77,4.03-1.88,3.76-3.23-.15-.61-.69-1.15-1.42-1.46-5.61-1.8-15.63-3.07-25.77-3.07s-20.24,1.27-25.8,3.07c-.73,.31-1.27,.84-1.42,1.46-.27,1.34,1.23,2.46,3.76,3.23,3.8,.96,14.13,2.38,23.46,2.42Z"/>
          <path class="cls-6" d="M704.56,852.79l-2.27-2.04s-2.19,1.31-4.92,.92c-2.69-.42-3.57-3.72-3.57-3.72,0,0-3.03,2.57-5.53,2.38-2.5-.23-4.11-2.38-4.11-2.38,0,0-2.73,1.96-5.11,1.77-2.38-.23-4.65-3.19-4.65-3.19,0,0-2.42,3.07-4.8,3.3-2.38,.19-4.34-2.07-4.34-2.07,0,0-1.08,2.27-4.11,2.76-3.03,.5-5.64-2.38-5.64-2.38,0,0-1.73,2.8-3.8,3.53-2.07,.69-4.76-1.04-4.76-1.04,0,0-.46,1.04-.77,1.65-.31,.61-1.19,.73-1.19,.73l.69,1.8c7.41-2.15,17.51-3.49,28.92-3.49s21.77,1.34,29.22,3.53l.77-2.07h-.04Z"/>
          <path class="cls-6" d="M674.65,842.84l1.08,.19c-.19,.46-.23,.92-.23,1.46,0,2.23,1.92,4.03,4.3,4.03,1.88,0,3.49-1.19,4.07-2.8,.04,.04,.42-1.46,.58-1.46,.12,0,.12,1.57,.19,1.57,.27,2.04,2.11,3.42,4.22,3.42,2.38,0,4.26-1.8,4.26-4.07,0-.15,0-.31-.04-.46l1.34-1.34,.73,1.69c-.27,.54-.38,1.11-.38,1.77,0,2.15,1.8,3.88,4.07,3.88,1.42,0,2.65-.69,3.38-1.73l.88-1.11v1.38c0,1.31,.54,2.53,1.88,2.73,0,0,1.46,.12,3.49-1.46,2-1.57,3.07-2.88,3.07-2.88l.12,1.61s-1.96,3.23-3.72,4.22c-.96,.58-2.46,1.19-3.65,.96-1.23-.19-2.11-1.19-2.57-2.34-.88,.54-1.96,.84-3.07,.84-2.42,0-4.61-1.34-5.45-3.3-1.11,1.19-2.65,1.92-4.45,1.92-1.96,0-3.72-.88-4.84-2.23-1.08,1.04-2.57,1.65-4.19,1.65-2.11,0-4.03-1.08-5.11-2.65-1.11,1.57-3,2.65-5.15,2.65-1.61,0-3.11-.61-4.19-1.65-1.11,1.34-2.88,2.23-4.8,2.23s-3.38-.73-4.49-1.92c-.84,1.96-3.03,3.3-5.45,3.3-1.11,0-2.15-.31-3.03-.84-.46,1.15-1.34,2.15-2.61,2.34-1.15,.23-2.65-.38-3.61-.96-1.8-1-3.92-4.22-3.92-4.22l.27-1.61s1.11,1.31,3.11,2.88c2,1.57,3.49,1.46,3.49,1.46,1.31-.19,1.88-1.42,1.88-2.73v-1.38l.84,1.11c.73,1.04,1.96,1.73,3.38,1.73,2.27,0,4.07-1.73,4.07-3.88,0-.65-.08-1.23-.38-1.77l.73-1.69,1.34,1.34c-.04,.15-.04,.31-.04,.46,0,2.27,1.88,4.07,4.26,4.07,2.11,0,3.96-1.38,4.26-3.42,.04,0,.04-1.57,.15-1.57,.19,0,.54,1.5,.61,1.46,.54,1.61,2.15,2.8,4.07,2.8,2.34,0,4.26-1.8,4.26-4.03,0-.54,0-1-.19-1.46l1.11-.19h.04Z"/>
          <path class="cls-4" d="M674.57,853.36c-11.56,.04-21.96,1.42-29.45,3.61-.5,.15-1.11-.23-1.27-.65-.15-.5,.19-1.08,.69-1.23,7.49-2.3,18.16-3.76,30.03-3.76s22.58,1.46,30.07,3.76c.5,.15,.84,.73,.69,1.23-.15,.42-.77,.81-1.27,.65-7.49-2.19-17.93-3.57-29.49-3.61Z"/>
          <path class="cls-6" d="M635.25,848.64s-1.46-1.84-2.5-2.8c-.77-.69-2.61-1.27-2.61-1.27,0-.31,1.08-1.08,2.23-1.08,.69,0,1.34,.27,1.73,.77l.15-.77s.92,.19,1.34,1.23c.46,1.11,.19,2.76,.19,2.76,0,0-.19,.77-.54,1.15h0Z"/>
          <path class="cls-6" d="M642.51,845.64l-.42,2.53-5.38,.58-.81-.46,.15-.88,4.07-3.34,2.38,1.57"/>
          <path class="cls-6" d="M635.33,847.68c.46-.46,1.38-.35,2.04,.23,.69,.58,.92,1.46,.46,1.92-.46,.5-1.38,.38-2.04-.23-.69-.58-.92-1.46-.46-1.92Z"/>
          <path class="cls-6" d="M645.2,848.18c-.23-.69,0-1.42,.5-1.61,.54-.12,1.15,.35,1.42,1.04,.23,.73,0,1.46-.54,1.61-.5,.15-1.11-.31-1.38-1.04Z"/>
          <path class="cls-6" d="M647.69,844.95l1.96,1.84,4.68-2.53,.35-.81-.65-.65-5.38-.46-.96,2.61"/>
          <path class="cls-6" d="M653.11,836.2l-2.57,2.46,3.3,4.38,.88,.35,.65-.69,1.15-5.26-3.42-1.23"/>
          <path class="cls-6" d="M661.86,842.11l-1,2.42-5.38-.5-.69-.61,.38-.84,4.68-2.46,2,2"/>
          <path class="cls-6" d="M654.76,841.65c1.04,0,1.88,.81,1.88,1.8s-.84,1.8-1.88,1.8-1.88-.81-1.88-1.8,.84-1.8,1.88-1.8Z"/>
          <path class="cls-6" d="M663.82,844.61c-.12-.77,.27-1.42,.81-1.5,.54-.08,1.08,.5,1.15,1.27,.12,.73-.27,1.42-.81,1.46-.54,.08-1.08-.5-1.15-1.23Z"/>
          <path class="cls-6" d="M667.32,841.88l1.54,2.19,5.15-1.61,.54-.69-.58-.77-5.11-1.5-1.54,2.38"/>
          <path class="cls-6" d="M674.53,833.86l-3.3,2,2.46,5.3,.84,.54,.84-.54,2.46-5.3-3.3-2"/>
          <path class="cls-6" d="M681.79,841.88l-1.5,2.19-5.15-1.61-.54-.69,.54-.77,5.15-1.5,1.5,2.38"/>
          <path class="cls-6" d="M674.57,839.96c1.04,0,1.88,.81,1.88,1.8s-.84,1.8-1.88,1.8-1.88-.81-1.88-1.8,.84-1.8,1.88-1.8Z"/>
          <path class="cls-6" d="M685.44,844.61c.08-.77-.31-1.42-.84-1.5-.54-.08-1.08,.5-1.15,1.27-.08,.73,.27,1.42,.81,1.46,.54,.08,1.08-.5,1.19-1.23Z"/>
          <path class="cls-6" d="M687.32,842.11l1,2.42,5.38-.5,.69-.61-.38-.84-4.68-2.46-2,2"/>
          <path class="cls-6" d="M696.08,836.2l2.57,2.46-3.3,4.38-.88,.35-.65-.69-1.15-5.26,3.42-1.23"/>
          <path class="cls-6" d="M701.49,844.95l-1.96,1.84-4.68-2.53-.38-.81,.73-.65,5.38-.46,.92,2.61"/>
          <path class="cls-6" d="M694.46,841.65c1.04,0,1.88,.81,1.88,1.8s-.84,1.8-1.88,1.8-1.88-.81-1.88-1.8,.84-1.8,1.88-1.8Z"/>
          <path class="cls-6" d="M704.03,848.18c.23-.69,0-1.42-.5-1.61-.54-.12-1.15,.35-1.42,1.04-.23,.73,0,1.46,.54,1.61,.5,.15,1.11-.31,1.38-1.04Z"/>
          <path class="cls-6" d="M713.2,848.64s1.46-1.84,2.53-2.8c.73-.69,2.57-1.27,2.57-1.27,0-.31-1.08-1.08-2.23-1.08-.69,0-1.34,.27-1.73,.77l-.15-.77s-.92,.19-1.38,1.23c-.42,1.11-.12,2.76-.12,2.76,0,0,.15,.77,.5,1.15h0Z"/>
          <path class="cls-6" d="M705.95,845.64l.42,2.53,5.38,.58,.81-.46-.19-.88-4.03-3.34-2.38,1.57"/>
          <path class="cls-6" d="M713.24,847.68c-.42-.46-1.34-.35-2.04,.23-.69,.58-.92,1.46-.46,1.92,.46,.5,1.38,.38,2.07-.23,.69-.58,.88-1.46,.42-1.92Z"/>
        </g>
        <g id="crown_pt2" data-name="crown pt2">
          <path class="cls-8" d="M645.31,861.31l1.19-1.92,2.5,.5-1.46,2.15-2.23-.73"/>
          <path class="cls-12" d="M656.06,859.43l-2.65,.42c-.69,.08-1.34-.35-1.46-1-.08-.65,.38-1.23,1.04-1.34l2.69-.38,2.73-.42c.69-.08,1.31,.35,1.42,.96,.08,.65-.38,1.27-1.04,1.34l-2.73,.42"/>
          <path class="cls-10" d="M665.05,855.9c.93,0,1.69,.7,1.69,1.57s-.76,1.57-1.69,1.57-1.69-.7-1.69-1.57,.76-1.57,1.69-1.57Z"/>
          <path class="cls-8" d="M674.69,858.16h-3.69c-.69,0-1.27-.54-1.27-1.19s.54-1.19,1.23-1.19h7.53c.73,0,1.27,.54,1.27,1.19s-.58,1.19-1.27,1.19h-3.8"/>
          <path class="cls-10" d="M684.13,855.9c.93,0,1.69,.7,1.69,1.57s-.76,1.57-1.69,1.57-1.69-.7-1.69-1.57,.76-1.57,1.69-1.57Z"/>
          <path class="cls-12" d="M693.12,859.43l2.65,.42c.69,.08,1.34-.35,1.46-1,.08-.65-.35-1.23-1.04-1.34l-2.69-.38-2.73-.42c-.69-.08-1.34,.35-1.42,.96-.12,.65,.35,1.27,1.04,1.34l2.73,.42"/>
          <path class="cls-8" d="M703.64,861.43l-.96-2.04-2.57,.23,1.23,2.27,2.3-.46"/>
          <path class="cls-5" d="M674.53,868.45c-9.33,0-17.78-.84-24.19-2.5,6.41-1.65,14.86-2.65,24.19-2.69,9.37,0,17.86,1.04,24.31,2.69-6.45,1.65-14.94,2.5-24.31,2.5Z"/>
          <path class="cls-11" d="M678.91,868.15v-4.45m-2.23,4.61l.04-4.72m-1.65,4.8v-4.84"/>
          <path class="cls-11" d="M673.69,868.42v-4.88"/>
          <path class="cls-11" d="M672.35,868.42v-4.88"/>
          <path class="cls-11" d="M671.12,868.42v-4.88"/>
          <path class="cls-11" d="M669.85,868.42v-4.88"/>
          <path class="cls-11" d="M668.77,868.42v-4.88"/>
          <path class="cls-11" d="M666.66,868.15l-.04-4.42m1.04,4.49v-4.65"/>
          <path class="cls-11" d="M664.7,867.96v-4.07m1,4.19l-.04-4.34"/>
          <path class="cls-11" d="M662.09,867.72v-3.57m.88,3.61v-3.76m.88,3.92v-3.92"/>
          <path class="cls-11" d="M661.21,867.69v-3.46"/>
          <path class="cls-11" d="M660.36,867.53v-3.26"/>
          <path class="cls-11" d="M659.44,867.42v-3"/>
          <path class="cls-11" d="M657.56,867.15l-.04-2.38m1,2.53v-2.69"/>
          <path class="cls-11" d="M656.6,866.96v-2.11"/>
          <path class="cls-11" d="M655.72,866.8v-1.77"/>
          <path class="cls-11" d="M654.76,866.57v-1.38"/>
          <path class="cls-11" d="M653.8,866.46v-1.04"/>
          <path class="cls-11" d="M652.76,866.23v-.5"/>
        </g>
      </g>
      <g id="pillar_left" data-name="pillar left">
        <g>
          <path class="cls-2" d="M734.52,1269.81c-5.91,0-11.17-1.27-15.09-3.34-3.84-1.96-9.06-3.15-14.82-3.15s-11.14,1.23-15.01,3.19c-3.88,2.04-9.22,3.3-15.05,3.3s-11.21-1.38-15.09-3.46c-3.84-1.88-8.95-3.03-14.55-3.03s-10.98,1.11-14.82,3.11c-3.92,2.07-9.29,3.38-15.17,3.38v9.25c5.88,0,11.25-1.34,15.17-3.38,3.84-2,8.99-3.15,14.82-3.15s10.71,1.19,14.55,3.07c3.88,2.04,9.18,3.46,15.09,3.46s11.17-1.27,15.05-3.3c3.88-2,9.22-3.23,15.01-3.23s10.98,1.23,14.82,3.19c3.92,2.07,9.1,3.34,15.01,3.34l.08-9.25h0Z"/>
          <path class="cls-1" d="M734.52,1279.07c-5.91,0-11.17-1.27-15.09-3.34-3.84-1.96-9.06-3.19-14.82-3.19s-11.14,1.23-15.01,3.23c-3.88,2.04-9.22,3.3-15.05,3.3s-11.21-1.42-15.09-3.46c-3.84-1.88-8.95-3.07-14.55-3.07s-10.98,1.15-14.82,3.15c-3.92,2.04-9.29,3.38-15.17,3.38v9.25c5.88,0,11.25-1.34,15.17-3.38,3.84-2,8.99-3.15,14.82-3.15s10.71,1.19,14.55,3.07c3.88,2.07,9.18,3.46,15.09,3.46s11.17-1.31,15.05-3.3,9.22-3.23,15.01-3.23,10.98,1.23,14.82,3.23c3.92,2.04,9.1,3.3,15.01,3.3l.08-9.25"/>
          <path class="cls-2" d="M734.52,1288.32c-5.91,0-11.17-1.27-15.09-3.3-3.84-2-9.06-3.23-14.82-3.23s-11.14,1.23-15.01,3.23-9.22,3.3-15.05,3.3-11.21-1.38-15.09-3.46c-3.84-1.88-8.95-3.07-14.55-3.07s-10.98,1.15-14.82,3.15c-3.92,2.04-9.29,3.38-15.17,3.38v9.22c5.88,0,11.25-1.31,15.17-3.38,3.84-1.96,8.99-3.07,14.82-3.07s10.71,1.15,14.55,3.03c3.88,2.07,9.18,3.42,15.09,3.42s11.17-1.23,15.05-3.26c3.88-2,9.22-3.19,15.01-3.19s10.98,1.19,14.82,3.15c3.92,2.11,9.1,3.3,15.01,3.3l.08-9.22"/>
          <path class="cls-1" d="M734.44,1306.83c-5.91,0-11.1-1.27-15.01-3.34-3.84-1.96-9.06-3.15-14.82-3.15s-11.14,1.19-15.01,3.19c-3.88,2-9.22,3.3-15.05,3.3s-11.21-1.42-15.09-3.46c-3.84-1.92-8.95-3.03-14.55-3.03s-10.98,1.11-14.82,3.11c-3.92,2.04-9.29,3.38-15.17,3.38v-9.22c5.88,0,11.25-1.38,15.17-3.46,3.84-1.96,8.99-3.07,14.82-3.07s10.71,1.15,14.55,3.03c3.88,2.07,9.18,3.42,15.09,3.42s11.17-1.23,15.05-3.26c3.88-2,9.22-3.19,15.01-3.19s10.98,1.19,14.82,3.15c3.92,2.11,9.18,3.3,15.09,3.3l-.08,9.29"/>
          <path class="cls-2" d="M734.44,1316.08c-5.91,0-11.1-1.27-15.01-3.3-3.84-2-9.06-3.23-14.82-3.23s-11.14,1.23-15.01,3.23-9.22,3.3-15.05,3.3-11.21-1.42-15.09-3.46c-3.84-1.92-8.95-3.07-14.55-3.07s-10.98,1.15-14.82,3.15c-3.92,2.04-9.29,3.38-15.17,3.38v-9.18c5.88,0,11.25-1.42,15.17-3.46,3.84-2,8.99-3.11,14.82-3.11s10.71,1.15,14.55,3.03c3.88,2.04,9.18,3.46,15.09,3.46s11.17-1.31,15.05-3.3,9.22-3.19,15.01-3.19,10.98,1.19,14.82,3.15c3.92,2.07,9.14,3.34,15.09,3.34l-.08,9.25h0Z"/>
        </g>
        <g>
          <path class="cls-4" d="M640.97,1231.8c.19,.81,.5,1.54,.5,2.38,0,5.61-4.88,10.1-10.79,10.1h88.09c-5.95,0-10.79-4.49-10.79-10.1,0-.81,.15-1.57,.35-2.38-.5,.19-1.11,.23-1.69,.23h-64.09c-.5,0-1.11-.08-1.57-.23Z"/>
          <path class="cls-6" d="M642.55,1226h64.09c2.19,0,3.92,1.34,3.92,3s-1.73,3.03-3.92,3.03h-64.09c-2.15,0-3.92-1.38-3.92-3.03s1.77-3,3.92-3Z"/>
          <path class="cls-6" d="M630.8,1266.66h87.82v-22.39h-87.82v22.39Z"/>
        </g>
        <path class="cls-1" d="M643.39,1222.35h62.4v-305.78h-62.4v305.78Z"/>
        <path class="cls-11" d="M687.86,916.99v305.13m7.03-305.13v305.13"/>
        <g>
          <path class="cls-6" d="M631.99,892.3h85.59v-22.43h-85.59v22.43h0Z"/>
          <path class="cls-4" d="M640.97,907.24c.54-.23,.92-.27,1.57-.27h64.09c.65,0,1.23,.12,1.77,.31-2.23-.73-3.8-2.73-3.8-5.07s1.73-4.38,3.96-5.11c-.54,.15-1.27,.31-1.88,.31h-64.13c-.65,0-1.27-.04-1.8-.23l.35,.08c2.3,.69,3.61,2.73,3.61,4.95s-1.46,4.34-3.72,5.03h0Z"/>
          <path class="cls-6" d="M642.55,906.97h64.09c2.19,0,3.92,1.34,3.92,3s-1.73,3.03-3.92,3.03h-64.09c-2.15,0-3.92-1.34-3.92-3.03s1.77-3,3.92-3Z"/>
          <path class="cls-6" d="M642.55,892.3h64.13c2.19,0,3.96,1.15,3.96,2.53s-1.77,2.57-3.96,2.57h-64.13c-2.15,0-3.92-1.15-3.92-2.57s1.77-2.53,3.92-2.53Z"/>
        </g>
      </g>
      <g id="ribbon_left" data-name="ribbon left">
        <path class="cls-8" d="M623.92,1146.7c-8.68,4.99-14.59,10.14-13.63,12.71,.46,2.34,3.23,4.11,7.18,6.72,6.22,4.34,9.98,12.06,7.03,15.63,5.15-4.15,8.41-10.33,8.41-17.24s-3.46-13.67-8.99-17.82Z"/>
        <path class="cls-5" d="M769.54,1030.92c-13.59-5.61-36.75-9.79-63.32-10.68-9.18,.08-19.35,.96-29.91,2.69-37.32,6.26-65.78,21.16-63.51,33.29,.04,.23,.15,.77,.19,1,0,0-13.98-31.53-14.21-32.72-2.5-13.48,29.03-30.03,70.46-36.94,13.02-2.19,25.69-3.03,36.71-2.92,26.5,0,49.54,3.42,63.44,8.56l.15,37.71"/>
        <path class="cls-8" d="M643.28,1069.32c-17.32-1.23-29.11-5.88-30.49-13.09-1.08-5.76,4.8-12.17,15.24-17.97,4.65,.54,9.91,1.15,15.36,1.15l-.12,29.91"/>
        <path class="cls-8" d="M705.91,1045.94c10.83,1.65,18.93,4.34,22.96,7.64l.38,.65c1.92,3.96-7.56,12.36-23.46,21.77l.12-30.07"/>
        <path class="cls-5" d="M604.49,1128.31c-1.65-4.92,15.24-14.82,39.09-23.58,10.91-3.88,19.89-7.95,31.07-12.86,33.14-14.67,57.6-31.49,54.6-37.59l-.35-.65c1.77,1.46,4.53,31.64,4.53,31.64,3,5.61-19.39,22.2-49.92,36.79-9.75,4.68-30.37,12.29-40.09,15.71-17.43,6.03-34.71,17.43-33.14,21.66l-5.8-31.07v-.04h0Z"/>
      </g>
      <g id="crown_right" data-name="crown right">
        <path class="cls-8" d="M1247.42,846.41s-2.84,3-4.92,3.42c-2.04,.38-4.65-1.88-4.65-1.88,0,0-1.84,1.96-4.15,2.46-2.27,.54-5.41-2.53-5.41-2.53,0,0-2.19,3.07-4.11,3.8-1.96,.69-4.34-.92-4.34-.92,0,0-.88,1.5-2.5,2.34-.69,.35-1.84-.19-1.84-.19l-2.3-1.46-2.61-2.76-2.38-.92s-1.08-3.49-1.19-4.11c-.08-.61-.31-2.19-.31-2.19-.5-2.5,3.34-5.38,8.83-6.6,3.15-.73,5.91-.69,7.91-.08,2.19-1.84,6.84-3.15,12.29-3.15,4.95,0,9.29,1.04,11.67,2.69,2.34-1.65,6.68-2.69,11.64-2.69,5.45,0,10.06,1.31,12.25,3.15,2.04-.61,4.76-.65,7.95,.08,5.45,1.23,9.33,4.11,8.83,6.6,0,0-.23,1.57-.31,2.19-.12,.61-1.23,4.11-1.23,4.11l-2.38,.92-2.61,2.76-2.23,1.46s-1.15,.54-1.84,.19c-1.65-.81-2.53-2.34-2.53-2.34,0,0-2.38,1.61-4.34,.92-1.96-.73-4.11-3.8-4.11-3.8,0,0-3.15,3.07-5.45,2.53-2.27-.5-4.11-2.46-4.11-2.46,0,0-2.61,2.27-4.65,1.88-2.07-.42-4.88-3.42-4.88-3.42h0Z"/>
        <g>
          <ellipse class="cls-6" cx="1247.31" cy="830.21" rx="5.3" ry="7.53"/>
          <ellipse class="cls-6" cx="1247.42" cy="830.21" rx="2.42" ry="6.95"/>
          <ellipse class="cls-17" cx="1247.39" cy="821.57" rx="3.57" ry="3.38"/>
          <path class="cls-6" d="M1252.34,820.38v2.23h-9.72v-2.23h3.61v-4.99h-2.38v-2.23h2.38v-2.23h2.34v2.23h2.34v2.23h-2.34v4.99h3.76"/>
          <path class="cls-11" d="M1248.42,818.38c1.89,.55,2.94,2.44,2.36,4.22-.58,1.78-2.58,2.78-4.46,2.24s-2.94-2.44-2.36-4.22c.36-1.12,1.31-1.98,2.51-2.27"/>
        </g>
        <g>
          <path class="cls-14" d="M1207.33,844.76c-.5-1.27-.84-2.69-.84-4.15,0-6.11,4.84-11.06,10.87-11.06,1.92,0,3.69,.5,5.26,1.42"/>
          <path class="cls-11" d="M1226.8,836.85c-.58-1-1.11-2.07-1.11-3.23,0-4.42,4.57-7.99,10.14-7.99,2.38,0,4.61,.65,6.34,1.73"/>
          <path class="cls-11" d="M1267.85,836.97c.58-1,.96-2.19,.96-3.34,0-4.42-4.53-7.99-10.14-7.99-2.38,0-4.57,.65-6.3,1.73"/>
          <path class="cls-14" d="M1287.21,844.76c.5-1.27,.81-2.69,.81-4.15,0-6.11-4.84-11.06-10.83-11.06-1.92,0-3.72,.5-5.3,1.42"/>
          <path class="cls-11" d="M1204.11,838.08c.95,0,1.73,.74,1.73,1.65s-.77,1.65-1.73,1.65-1.73-.74-1.73-1.65,.77-1.65,1.73-1.65Z"/>
          <path class="cls-11" d="M1204.76,832.01c.95,0,1.73,.74,1.73,1.65s-.77,1.65-1.73,1.65-1.73-.74-1.73-1.65,.77-1.65,1.73-1.65Z"/>
          <path class="cls-11" d="M1208.68,827.4c.95,0,1.73,.74,1.73,1.65s-.77,1.65-1.73,1.65-1.73-.74-1.73-1.65,.77-1.65,1.73-1.65Z"/>
          <path class="cls-11" d="M1213.86,824.91c.95,0,1.73,.74,1.73,1.65s-.77,1.65-1.73,1.65-1.73-.74-1.73-1.65,.77-1.65,1.73-1.65Z"/>
          <path class="cls-11" d="M1219.39,825.14c.95,0,1.73,.74,1.73,1.65s-.77,1.65-1.73,1.65-1.73-.74-1.73-1.65,.77-1.65,1.73-1.65Z"/>
          <path class="cls-10" d="M1222.77,831.94c.95,0,1.73,.74,1.73,1.65s-.77,1.65-1.73,1.65-1.73-.74-1.73-1.65,.77-1.65,1.73-1.65Z"/>
          <path class="cls-11" d="M1223.73,826.18c.95,0,1.73,.74,1.73,1.65s-.77,1.65-1.73,1.65-1.73-.74-1.73-1.65,.77-1.65,1.73-1.65Z"/>
          <path class="cls-11" d="M1228.07,822.57c.95,0,1.73,.74,1.73,1.65s-.77,1.65-1.73,1.65-1.73-.74-1.73-1.65,.77-1.65,1.73-1.65Z"/>
          <path class="cls-11" d="M1233.52,820.84c.95,0,1.73,.74,1.73,1.65s-.77,1.65-1.73,1.65-1.73-.74-1.73-1.65,.77-1.65,1.73-1.65Z"/>
          <path class="cls-11" d="M1239.05,821.03c.95,0,1.73,.74,1.73,1.65s-.77,1.65-1.73,1.65-1.73-.74-1.73-1.65,.77-1.65,1.73-1.65Z"/>
          <path class="cls-11" d="M1255.45,821.03c.95,0,1.73,.74,1.73,1.65s-.77,1.65-1.73,1.65-1.73-.74-1.73-1.65,.77-1.65,1.73-1.65Z"/>
          <path class="cls-11" d="M1261.02,820.84c.95,0,1.73,.74,1.73,1.65s-.77,1.65-1.73,1.65-1.73-.74-1.73-1.65,.77-1.65,1.73-1.65Z"/>
          <path class="cls-11" d="M1266.43,822.57c.95,0,1.73,.74,1.73,1.65s-.77,1.65-1.73,1.65-1.73-.74-1.73-1.65,.77-1.65,1.73-1.65Z"/>
          <ellipse class="cls-11" cx="1270.77" cy="827.83" rx="1.73" ry="1.65"/>
          <path class="cls-10" d="M1271.73,831.94c.95,0,1.73,.74,1.73,1.65s-.77,1.65-1.73,1.65-1.73-.74-1.73-1.65,.77-1.65,1.73-1.65Z"/>
          <path class="cls-11" d="M1275.11,825.14c.95,0,1.73,.74,1.73,1.65s-.77,1.65-1.73,1.65-1.73-.74-1.73-1.65,.77-1.65,1.73-1.65Z"/>
          <path class="cls-11" d="M1280.68,824.91c.95,0,1.73,.74,1.73,1.65s-.77,1.65-1.73,1.65-1.73-.74-1.73-1.65,.77-1.65,1.73-1.65Z"/>
          <path class="cls-11" d="M1285.86,827.4c.95,0,1.73,.74,1.73,1.65s-.77,1.65-1.73,1.65-1.73-.74-1.73-1.65,.77-1.65,1.73-1.65Z"/>
          <path class="cls-11" d="M1289.78,832.01c.95,0,1.73,.74,1.73,1.65s-.77,1.65-1.73,1.65-1.73-.74-1.73-1.65,.77-1.65,1.73-1.65Z"/>
          <ellipse class="cls-11" cx="1290.43" cy="839.73" rx="1.73" ry="1.65"/>
        </g>
        <g id="crown_pt1-2" data-name="crown pt1">
          <path class="cls-6" d="M1220.16,861.12c-.77-2.19-2.23-4.15-2.23-4.15,7.49-2.19,17.89-3.57,29.45-3.61,11.56,.04,22.08,1.42,29.53,3.61,0,0-.84,1.46-2,3.49-.65,1.15-1.5,3.11-1.46,3.11-6.72-2.07-15.44-3.11-26.11-3.15-10.71,.04-20.97,1.34-26.34,3.3,.08,0-.38-1.23-.88-2.61h.04"/>
          <path class="cls-6" d="M1247.39,870.64c9.33-.04,19.62-1.46,23.42-2.42,2.53-.77,4.03-1.88,3.76-3.23-.15-.61-.69-1.15-1.42-1.46-5.61-1.8-15.63-3.07-25.77-3.07s-20.24,1.27-25.8,3.07c-.73,.31-1.27,.84-1.42,1.46-.27,1.34,1.23,2.46,3.76,3.23,3.8,.96,14.13,2.38,23.46,2.42Z"/>
          <path class="cls-6" d="M1277.38,852.79l-2.27-2.04s-2.19,1.31-4.92,.92c-2.69-.42-3.57-3.72-3.57-3.72,0,0-3.03,2.57-5.53,2.38-2.5-.23-4.11-2.38-4.11-2.38,0,0-2.73,1.96-5.11,1.77-2.38-.23-4.65-3.19-4.65-3.19,0,0-2.42,3.07-4.8,3.3-2.38,.19-4.34-2.07-4.34-2.07,0,0-1.08,2.27-4.11,2.76-3.03,.5-5.64-2.38-5.64-2.38,0,0-1.73,2.8-3.8,3.53-2.07,.69-4.76-1.04-4.76-1.04,0,0-.46,1.04-.77,1.65-.31,.61-1.19,.73-1.19,.73l.69,1.8c7.41-2.15,17.51-3.49,28.92-3.49s21.77,1.34,29.22,3.53l.77-2.07h-.04Z"/>
          <path class="cls-6" d="M1247.46,842.84l1.08,.19c-.19,.46-.23,.92-.23,1.46,0,2.23,1.92,4.03,4.3,4.03,1.88,0,3.49-1.19,4.07-2.8,.04,.04,.42-1.46,.58-1.46,.12,0,.12,1.57,.19,1.57,.27,2.04,2.11,3.42,4.22,3.42,2.38,0,4.26-1.8,4.26-4.07,0-.15,0-.31-.04-.46l1.34-1.34,.73,1.69c-.27,.54-.38,1.11-.38,1.77,0,2.15,1.8,3.88,4.07,3.88,1.42,0,2.65-.69,3.38-1.73l.88-1.11v1.38c0,1.31,.54,2.53,1.88,2.73,0,0,1.46,.12,3.49-1.46,2-1.57,3.07-2.88,3.07-2.88l.12,1.61s-1.96,3.23-3.72,4.22c-.96,.58-2.46,1.19-3.65,.96-1.23-.19-2.11-1.19-2.57-2.34-.88,.54-1.96,.84-3.07,.84-2.42,0-4.61-1.34-5.45-3.3-1.11,1.19-2.65,1.92-4.45,1.92-1.96,0-3.72-.88-4.84-2.23-1.08,1.04-2.57,1.65-4.19,1.65-2.11,0-4.03-1.08-5.11-2.65-1.11,1.57-3,2.65-5.15,2.65-1.61,0-3.11-.61-4.19-1.65-1.11,1.34-2.88,2.23-4.8,2.23s-3.38-.73-4.49-1.92c-.84,1.96-3.03,3.3-5.45,3.3-1.11,0-2.15-.31-3.03-.84-.46,1.15-1.34,2.15-2.61,2.34-1.15,.23-2.65-.38-3.61-.96-1.8-1-3.92-4.22-3.92-4.22l.27-1.61s1.11,1.31,3.11,2.88c2,1.57,3.49,1.46,3.49,1.46,1.31-.19,1.88-1.42,1.88-2.73v-1.38l.84,1.11c.73,1.04,1.96,1.73,3.38,1.73,2.27,0,4.07-1.73,4.07-3.88,0-.65-.08-1.23-.38-1.77l.73-1.69,1.34,1.34c-.04,.15-.04,.31-.04,.46,0,2.27,1.88,4.07,4.26,4.07,2.11,0,3.96-1.38,4.26-3.42,.04,0,.04-1.57,.15-1.57,.19,0,.54,1.5,.61,1.46,.54,1.61,2.15,2.8,4.07,2.8,2.34,0,4.26-1.8,4.26-4.03,0-.54,0-1-.19-1.46l1.11-.19h.04Z"/>
          <path class="cls-4" d="M1247.39,853.36c-11.56,.04-21.96,1.42-29.45,3.61-.5,.15-1.11-.23-1.27-.65-.15-.5,.19-1.08,.69-1.23,7.49-2.3,18.16-3.76,30.03-3.76s22.58,1.46,30.07,3.76c.5,.15,.84,.73,.69,1.23-.15,.42-.77,.81-1.27,.65-7.49-2.19-17.93-3.57-29.49-3.61Z"/>
          <path class="cls-6" d="M1208.06,848.64s-1.46-1.84-2.5-2.8c-.77-.69-2.61-1.27-2.61-1.27,0-.31,1.08-1.08,2.23-1.08,.69,0,1.34,.27,1.73,.77l.15-.77s.92,.19,1.34,1.23c.46,1.11,.19,2.76,.19,2.76,0,0-.19,.77-.54,1.15h0Z"/>
          <path class="cls-6" d="M1215.32,845.64l-.42,2.53-5.38,.58-.81-.46,.15-.88,4.07-3.34,2.38,1.57"/>
          <path class="cls-6" d="M1208.14,847.68c.46-.46,1.38-.35,2.04,.23,.69,.58,.92,1.46,.46,1.92-.46,.5-1.38,.38-2.04-.23-.69-.58-.92-1.46-.46-1.92Z"/>
          <path class="cls-6" d="M1218.01,848.18c-.23-.69,0-1.42,.5-1.61,.54-.12,1.15,.35,1.42,1.04,.23,.73,0,1.46-.54,1.61-.5,.15-1.11-.31-1.38-1.04Z"/>
          <path class="cls-6" d="M1220.51,844.95l1.96,1.84,4.68-2.53,.35-.81-.65-.65-5.38-.46-.96,2.61"/>
          <path class="cls-6" d="M1225.92,836.2l-2.57,2.46,3.3,4.38,.88,.35,.65-.69,1.15-5.26-3.42-1.23"/>
          <path class="cls-6" d="M1234.68,842.11l-1,2.42-5.38-.5-.69-.61,.38-.84,4.68-2.46,2,2"/>
          <path class="cls-6" d="M1227.57,841.65c1.04,0,1.88,.81,1.88,1.8s-.84,1.8-1.88,1.8-1.88-.81-1.88-1.8,.84-1.8,1.88-1.8Z"/>
          <path class="cls-6" d="M1236.63,844.61c-.12-.77,.27-1.42,.81-1.5,.54-.08,1.08,.5,1.15,1.27,.12,.73-.27,1.42-.81,1.46-.54,.08-1.08-.5-1.15-1.23Z"/>
          <path class="cls-6" d="M1240.13,841.88l1.54,2.19,5.15-1.61,.54-.69-.58-.77-5.11-1.5-1.54,2.38"/>
          <path class="cls-6" d="M1247.35,833.86l-3.3,2,2.46,5.3,.84,.54,.84-.54,2.46-5.3-3.3-2"/>
          <path class="cls-6" d="M1254.6,841.88l-1.5,2.19-5.15-1.61-.54-.69,.54-.77,5.15-1.5,1.5,2.38"/>
          <path class="cls-6" d="M1247.39,839.96c1.04,0,1.88,.81,1.88,1.8s-.84,1.8-1.88,1.8-1.88-.81-1.88-1.8,.84-1.8,1.88-1.8Z"/>
          <path class="cls-6" d="M1258.25,844.61c.08-.77-.31-1.42-.84-1.5-.54-.08-1.08,.5-1.15,1.27-.08,.73,.27,1.42,.81,1.46,.54,.08,1.08-.5,1.19-1.23Z"/>
          <path class="cls-6" d="M1260.13,842.11l1,2.42,5.38-.5,.69-.61-.38-.84-4.68-2.46-2,2"/>
          <path class="cls-6" d="M1268.89,836.2l2.57,2.46-3.3,4.38-.88,.35-.65-.69-1.15-5.26,3.42-1.23"/>
          <path class="cls-6" d="M1274.3,844.95l-1.96,1.84-4.68-2.53-.38-.81,.73-.65,5.38-.46,.92,2.61"/>
          <path class="cls-6" d="M1267.28,841.65c1.04,0,1.88,.81,1.88,1.8s-.84,1.8-1.88,1.8-1.88-.81-1.88-1.8,.84-1.8,1.88-1.8Z"/>
          <path class="cls-6" d="M1276.84,848.18c.23-.69,0-1.42-.5-1.61-.54-.12-1.15,.35-1.42,1.04-.23,.73,0,1.46,.54,1.61,.5,.15,1.11-.31,1.38-1.04Z"/>
          <path class="cls-6" d="M1286.02,848.64s1.46-1.84,2.53-2.8c.73-.69,2.57-1.27,2.57-1.27,0-.31-1.08-1.08-2.23-1.08-.69,0-1.34,.27-1.73,.77l-.15-.77s-.92,.19-1.38,1.23c-.42,1.11-.12,2.76-.12,2.76,0,0,.15,.77,.5,1.15h0Z"/>
          <path class="cls-6" d="M1278.76,845.64l.42,2.53,5.38,.58,.81-.46-.19-.88-4.03-3.34-2.38,1.57"/>
          <path class="cls-6" d="M1286.05,847.68c-.42-.46-1.34-.35-2.04,.23-.69,.58-.92,1.46-.46,1.92,.46,.5,1.38,.38,2.07-.23,.69-.58,.88-1.46,.42-1.92Z"/>
        </g>
        <g id="crown_pt2-2" data-name="crown pt2">
          <path class="cls-8" d="M1218.12,861.31l1.19-1.92,2.5,.5-1.46,2.15-2.23-.73"/>
          <path class="cls-12" d="M1228.88,859.43l-2.65,.42c-.69,.08-1.34-.35-1.46-1-.08-.65,.38-1.23,1.04-1.34l2.69-.38,2.73-.42c.69-.08,1.31,.35,1.42,.96,.08,.65-.38,1.27-1.04,1.34l-2.73,.42"/>
          <path class="cls-10" d="M1237.86,855.9c.93,0,1.69,.7,1.69,1.57s-.76,1.57-1.69,1.57-1.69-.7-1.69-1.57,.76-1.57,1.69-1.57Z"/>
          <path class="cls-8" d="M1247.5,858.16h-3.69c-.69,0-1.27-.54-1.27-1.19s.54-1.19,1.23-1.19h7.53c.73,0,1.27,.54,1.27,1.19s-.58,1.19-1.27,1.19h-3.8"/>
          <path class="cls-10" d="M1256.95,855.9c.93,0,1.69,.7,1.69,1.57s-.76,1.57-1.69,1.57-1.69-.7-1.69-1.57,.76-1.57,1.69-1.57Z"/>
          <path class="cls-12" d="M1265.93,859.43l2.65,.42c.69,.08,1.34-.35,1.46-1,.08-.65-.35-1.23-1.04-1.34l-2.69-.38-2.73-.42c-.69-.08-1.34,.35-1.42,.96-.12,.65,.35,1.27,1.04,1.34l2.73,.42"/>
          <path class="cls-8" d="M1276.45,861.43l-.96-2.04-2.57,.23,1.23,2.27,2.3-.46"/>
          <path class="cls-5" d="M1247.35,868.45c-9.33,0-17.78-.84-24.19-2.5,6.41-1.65,14.86-2.65,24.19-2.69,9.37,0,17.86,1.04,24.31,2.69-6.45,1.65-14.94,2.5-24.31,2.5Z"/>
          <path class="cls-11" d="M1251.72,868.15v-4.45m-2.23,4.61l.04-4.72m-1.65,4.8v-4.84"/>
          <path class="cls-11" d="M1246.5,868.42v-4.88"/>
          <path class="cls-11" d="M1245.16,868.42v-4.88"/>
          <path class="cls-11" d="M1243.93,868.42v-4.88"/>
          <path class="cls-11" d="M1242.66,868.42v-4.88"/>
          <path class="cls-11" d="M1241.59,868.42v-4.88"/>
          <path class="cls-11" d="M1239.48,868.15l-.04-4.42m1.04,4.49v-4.65"/>
          <path class="cls-11" d="M1237.52,867.96v-4.07m1,4.19l-.04-4.34"/>
          <path class="cls-11" d="M1234.91,867.72v-3.57m.88,3.61v-3.76m.88,3.92v-3.92"/>
          <path class="cls-11" d="M1234.02,867.69v-3.46"/>
          <path class="cls-11" d="M1233.18,867.53v-3.26"/>
          <path class="cls-11" d="M1232.26,867.42v-3"/>
          <path class="cls-11" d="M1230.37,867.15l-.04-2.38m1,2.53v-2.69"/>
          <path class="cls-11" d="M1229.41,866.96v-2.11"/>
          <path class="cls-11" d="M1228.53,866.8v-1.77"/>
          <path class="cls-11" d="M1227.57,866.57v-1.38"/>
          <path class="cls-11" d="M1226.61,866.46v-1.04"/>
          <path class="cls-11" d="M1225.57,866.23v-.5"/>
        </g>
      </g>
      <g id="pillar_right" data-name="pillar right">
        <g id="pillar_left-2" data-name="pillar left">
          <g>
            <path class="cls-2" d="M1307.33,1269.81c-5.91,0-11.17-1.27-15.09-3.34-3.84-1.96-9.06-3.15-14.82-3.15s-11.14,1.23-15.01,3.19c-3.88,2.04-9.22,3.3-15.05,3.3s-11.21-1.38-15.09-3.46c-3.84-1.88-8.95-3.03-14.55-3.03s-10.98,1.11-14.82,3.11c-3.92,2.07-9.29,3.38-15.17,3.38v9.25c5.88,0,11.25-1.34,15.17-3.38,3.84-2,8.99-3.15,14.82-3.15s10.71,1.19,14.55,3.07c3.88,2.04,9.18,3.46,15.09,3.46s11.17-1.27,15.05-3.3c3.88-2,9.22-3.23,15.01-3.23s10.98,1.23,14.82,3.19c3.92,2.07,9.1,3.34,15.01,3.34l.08-9.25h0Z"/>
            <path class="cls-1" d="M1307.33,1279.07c-5.91,0-11.17-1.27-15.09-3.34-3.84-1.96-9.06-3.19-14.82-3.19s-11.14,1.23-15.01,3.23c-3.88,2.04-9.22,3.3-15.05,3.3s-11.21-1.42-15.09-3.46c-3.84-1.88-8.95-3.07-14.55-3.07s-10.98,1.15-14.82,3.15c-3.92,2.04-9.29,3.38-15.17,3.38v9.25c5.88,0,11.25-1.34,15.17-3.38,3.84-2,8.99-3.15,14.82-3.15s10.71,1.19,14.55,3.07c3.88,2.07,9.18,3.46,15.09,3.46s11.17-1.31,15.05-3.3,9.22-3.23,15.01-3.23,10.98,1.23,14.82,3.23c3.92,2.04,9.1,3.3,15.01,3.3l.08-9.25"/>
            <path class="cls-2" d="M1307.33,1288.32c-5.91,0-11.17-1.27-15.09-3.3-3.84-2-9.06-3.23-14.82-3.23s-11.14,1.23-15.01,3.23-9.22,3.3-15.05,3.3-11.21-1.38-15.09-3.46c-3.84-1.88-8.95-3.07-14.55-3.07s-10.98,1.15-14.82,3.15c-3.92,2.04-9.29,3.38-15.17,3.38v9.22c5.88,0,11.25-1.31,15.17-3.38,3.84-1.96,8.99-3.07,14.82-3.07s10.71,1.15,14.55,3.03c3.88,2.07,9.18,3.42,15.09,3.42s11.17-1.23,15.05-3.26c3.88-2,9.22-3.19,15.01-3.19s10.98,1.19,14.82,3.15c3.92,2.11,9.1,3.3,15.01,3.3l.08-9.22"/>
            <path class="cls-1" d="M1307.25,1306.83c-5.91,0-11.1-1.27-15.01-3.34-3.84-1.96-9.06-3.15-14.82-3.15s-11.14,1.19-15.01,3.19c-3.88,2-9.22,3.3-15.05,3.3s-11.21-1.42-15.09-3.46c-3.84-1.92-8.95-3.03-14.55-3.03s-10.98,1.11-14.82,3.11c-3.92,2.04-9.29,3.38-15.17,3.38v-9.22c5.88,0,11.25-1.38,15.17-3.46,3.84-1.96,8.99-3.07,14.82-3.07s10.71,1.15,14.55,3.03c3.88,2.07,9.18,3.42,15.09,3.42s11.17-1.23,15.05-3.26c3.88-2,9.22-3.19,15.01-3.19s10.98,1.19,14.82,3.15c3.92,2.11,9.18,3.3,15.09,3.3l-.08,9.29"/>
            <path class="cls-2" d="M1307.25,1316.08c-5.91,0-11.1-1.27-15.01-3.3-3.84-2-9.06-3.23-14.82-3.23s-11.14,1.23-15.01,3.23-9.22,3.3-15.05,3.3-11.21-1.42-15.09-3.46c-3.84-1.92-8.95-3.07-14.55-3.07s-10.98,1.15-14.82,3.15c-3.92,2.04-9.29,3.38-15.17,3.38v-9.18c5.88,0,11.25-1.42,15.17-3.46,3.84-2,8.99-3.11,14.82-3.11s10.71,1.15,14.55,3.03c3.88,2.04,9.18,3.46,15.09,3.46s11.17-1.31,15.05-3.3,9.22-3.19,15.01-3.19,10.98,1.19,14.82,3.15c3.92,2.07,9.14,3.34,15.09,3.34l-.08,9.25h0Z"/>
          </g>
          <g>
            <path class="cls-4" d="M1213.79,1231.8c.19,.81,.5,1.54,.5,2.38,0,5.61-4.88,10.1-10.79,10.1h88.09c-5.95,0-10.79-4.49-10.79-10.1,0-.81,.15-1.57,.35-2.38-.5,.19-1.11,.23-1.69,.23h-64.09c-.5,0-1.11-.08-1.57-.23Z"/>
            <path class="cls-6" d="M1215.36,1226h64.09c2.19,0,3.92,1.34,3.92,3s-1.73,3.03-3.92,3.03h-64.09c-2.15,0-3.92-1.38-3.92-3.03s1.77-3,3.92-3Z"/>
            <path class="cls-6" d="M1203.61,1266.66h87.82v-22.39h-87.82v22.39Z"/>
          </g>
          <path class="cls-1" d="M1216.2,1222.35h62.4v-305.78h-62.4v305.78Z"/>
          <path class="cls-11" d="M1260.67,916.99v305.13m7.03-305.13v305.13"/>
          <g>
            <path class="cls-6" d="M1204.8,892.3h85.59v-22.43h-85.59v22.43h0Z"/>
            <path class="cls-4" d="M1213.79,907.24c.54-.23,.92-.27,1.57-.27h64.09c.65,0,1.23,.12,1.77,.31-2.23-.73-3.8-2.73-3.8-5.07s1.73-4.38,3.96-5.11c-.54,.15-1.27,.31-1.88,.31h-64.13c-.65,0-1.27-.04-1.8-.23l.35,.08c2.3,.69,3.61,2.73,3.61,4.95s-1.46,4.34-3.72,5.03h0Z"/>
            <path class="cls-6" d="M1215.36,906.97h64.09c2.19,0,3.92,1.34,3.92,3s-1.73,3.03-3.92,3.03h-64.09c-2.15,0-3.92-1.34-3.92-3.03s1.77-3,3.92-3Z"/>
            <path class="cls-6" d="M1215.36,892.3h64.13c2.19,0,3.96,1.15,3.96,2.53s-1.77,2.57-3.96,2.57h-64.13c-2.15,0-3.92-1.15-3.92-2.57s1.77-2.53,3.92-2.53Z"/>
          </g>
        </g>
      </g>
      <g id="ribbon_right" data-name="ribbon right">
        <g id="ribbon_left-2" data-name="ribbon left">
          <path class="cls-8" d="M1298.27,1146.7c8.68,4.99,14.59,10.14,13.63,12.71-.46,2.34-3.23,4.11-7.18,6.72-6.22,4.34-9.98,12.06-7.03,15.63-5.15-4.15-8.41-10.33-8.41-17.24s3.46-13.67,8.99-17.82Z"/>
          <path class="cls-5" d="M1152.65,1030.92c13.59-5.61,36.75-9.79,63.32-10.68,9.18,.08,19.35,.96,29.91,2.69,37.32,6.26,65.78,21.16,63.51,33.29-.04,.23-.15,.77-.19,1,0,0,13.98-31.53,14.21-32.72,2.5-13.48-29.03-30.03-70.46-36.94-13.02-2.19-25.69-3.03-36.71-2.92-26.5,0-49.54,3.42-63.44,8.56l-.15,37.71"/>
          <path class="cls-8" d="M1278.91,1069.32c17.32-1.23,29.11-5.88,30.49-13.09,1.08-5.76-4.8-12.17-15.24-17.97-4.65,.54-9.91,1.15-15.36,1.15l.12,29.91"/>
          <path class="cls-8" d="M1216.28,1045.94c-10.83,1.65-18.93,4.34-22.96,7.64l-.38,.65c-1.92,3.96,7.56,12.36,23.46,21.77l-.12-30.07"/>
          <path class="cls-5" d="M1317.7,1128.31c1.65-4.92-15.24-14.82-39.09-23.58-10.91-3.88-19.89-7.95-31.07-12.86-33.14-14.67-57.6-31.49-54.6-37.59l.35-.65c-1.77,1.46-4.53,31.64-4.53,31.64-3,5.61,19.39,22.2,49.92,36.79,9.75,4.68,30.37,12.29,40.09,15.71,17.43,6.03,34.71,17.43,33.14,21.66l5.8-31.07v-.04h0Z"/>
        </g>
      </g>
      <g id="plus_ultra" data-name="plus ultra">
        <path class="cls-17" d="M639.05,1016.26c7.64-2.76,12.63-6.07,10.21-12.06-1.57-3.84-5.49-4.57-11.4-2.42l-10.41,3.8,9.37,23.16c1.04-.46,2.07-.92,3.11-1.31,1.08-.38,2.19-.69,3.26-1l-4.15-10.14v-.04h0Zm-4.53-11.17l2.65-.96c2.19-.81,4.65,.38,5.76,3.07,.81,2.04,.61,4.34-1.92,5.95-.81,.5-1.77,.88-2.69,1.27l-3.8-9.33"/>
        <path class="cls-17" d="M663.48,995.4c-1.11,.31-2.19,.61-3.3,.84-1.11,.19-2.27,.35-3.38,.46l5.41,24.12,16.82-3.38c-.19-.46-.46-1-.54-1.46-.12-.54-.12-1.08-.15-1.57-2.96,.84-6.18,1.77-10.02,2.53l-4.84-21.54"/>
        <path class="cls-17" d="M697.19,1016.18c3.15-8.76,6.99-17.13,10.79-25.61-.69,.12-1.38,.23-2.07,.27-.69,.04-1.42,.04-2.07,0-2.04,6.18-4.53,12.33-7.18,18.43-3.15-5.8-6.64-11.48-9.33-17.32-1.31,.15-2.65,.35-3.96,.46-1.31,.08-2.69,.04-3.99,.08,4.84,7.91,9.52,15.78,13.98,23.92,.61-.12,1.23-.23,1.92-.31,.61-.04,1.27,.04,1.92,.08"/>
        <path class="cls-17" d="M732.36,997.63c.58-1.19,1.19-2.3,1.84-3.42-.92-.84-3.69-2.11-6.95-2.42-6.87-.69-10.79,2.34-11.25,6.49-1,8.68,12.71,7.95,12.06,13.71-.27,2.46-2.88,3.46-5.68,3.19-3.11-.31-5.41-2.04-5.8-4.57l-.84-.08c-.46,1.5-1.11,2.96-1.84,4.42,2.04,1.31,4.65,2.04,7.1,2.27,7.03,.73,12.36-2.07,12.86-6.68,.88-8.26-12.94-8.72-12.4-13.59,.23-2.04,1.8-3.38,5.38-3.03,2.57,.27,4.15,1.65,4.84,3.65l.69,.08"/>
        <path class="cls-17" d="M1191.55,1017.52c2.38-8.95,5.41-17.59,8.41-26.38-.65,.19-1.34,.35-2.04,.42-.65,.12-1.38,.15-2.07,.19-1.42,6.3-3.38,12.63-5.45,18.97-3.69-5.53-7.68-10.91-10.87-16.51-1.31,.27-2.61,.58-3.92,.77s-2.65,.27-3.99,.42c5.57,7.45,10.94,14.94,16.13,22.69,.61-.15,1.23-.38,1.92-.46,.61-.08,1.27-.08,1.88-.12"/>
        <path class="cls-17" d="M1215.28,991.33c-1.11,.04-2.27,.15-3.38,.12-1.15,0-2.3-.15-3.42-.23l-.46,24.61,17.24,.31c-.12-.5-.23-1.08-.23-1.57s.15-1.04,.27-1.54c-3.11,.19-6.45,.38-10.41,.31l.38-22"/>
        <path class="cls-17" d="M1242.32,995.37c2.76,.23,5.41,.73,8.06,1.19-.04-.5-.12-1.04-.08-1.57,.04-.5,.23-1,.38-1.5l-23.31-1.92c.04,.54,.12,1.04,.08,1.54-.04,.54-.23,1.04-.38,1.54,2.38-.08,5.26-.08,8.49,.19l-2.04,22.16c1.11,0,2.27,0,3.38,.12,1.15,.08,2.27,.27,3.38,.42l2.04-22.16"/>
        <path class="cls-17" d="M1251.88,1019.64c1.11,.19,2.27,.35,3.38,.58,1.08,.23,2.19,.58,3.26,.88l2.76-11.29,.31,.04c.61,1.57,1.46,3.46,1.88,4.57l3.46,8.52c1.38,.23,2.73,.42,4.03,.69,1.38,.31,2.69,.69,3.99,1.08l-1.19-2.57c-1.84-3.84-3.8-7.72-5.41-11.6,4.3,.15,7.6-1.38,8.45-4.84,.58-2.38-.38-4.26-2.61-5.88-1.69-1.19-4.92-1.8-7.03-2.3l-9.37-2.04-5.91,24.15m12.06-20.81c2.73,.61,6.11,1.04,6.11,4.11-.04,.81-.12,1.34-.23,1.84-.88,3.61-3.61,4.84-8.18,3.49l2.3-9.45"/>
        <path class="cls-17" d="M1296.27,1027.05c-.19,2.65-.69,5.26-1.19,8.06,1.15,.54,2.34,1.04,3.46,1.69,1.15,.61,2.19,1.31,3.3,2l2.3-27.76c-.54-.23-1.04-.46-1.57-.73-.5-.27-.96-.58-1.42-.92l-24.5,15.55c.65,.31,1.34,.61,1.96,.96,.65,.35,1.19,.73,1.8,1.08,2.07-1.73,4.22-3.15,6.68-4.99l9.18,5.03v.04Zm-6.95-6.37l8.18-5.26-.96,9.22-7.22-3.96"/>
      </g>
    </g>
    <g id="crown_crest" data-name="crown crest">
      <path class="cls-8" d="M958.66,701.64c25.5,0,48.23,3.8,63.01,9.64,8.45,3.84,19.81,6.64,32.26,8.33,9.48,1.27,18.47,1.5,26.3,.92,10.48-.23,25.61,2.84,40.78,9.52,12.52,5.57,23,12.33,29.95,18.85l-6.03,5.38-1.73,15.21-16.51,18.89-8.26,7.03-19.55,15.63-9.98,.81-3.03,8.64-126.37-14.82-126.8,14.82-3.03-8.64-10.02-.81-19.51-15.63-8.26-7.03-16.51-18.89-1.69-15.21-6.07-5.38c6.99-6.53,17.43-13.29,29.95-18.85,15.17-6.68,30.3-9.75,40.78-9.52,7.83,.58,16.82,.35,26.3-.92,12.44-1.69,23.81-4.49,32.26-8.33,14.82-5.84,36.25-9.64,61.75-9.64h0Z"/>
      <g>
        <path class="cls-6" d="M865.31,735.05l5.3,4.26,7.99-13.06c-8.64-5.3-14.59-14.52-14.59-25,0-1.19,.08-2.34,.23-3.49,.81-16.67,21.12-30.41,46.85-30.41,13.36,0,25.46,3.65,33.95,9.52,.23-2.57,.46-4.8,.81-7.14-9.33-5.45-21.5-8.76-34.75-8.76-29.61,0-52.76,16.86-53.88,36.75-.12,1.19-.19,2.34-.19,3.53,0,10.6,4.84,20.2,12.52,26.84l-4.22,6.95"/>
        <path class="cls-6" d="M865.65,735.21c-10.1-7.56-16.4-17.82-16.4-29.11,0-12.98,8.52-24.58,21.43-32.29-7.95,6.41-12.79,14.71-13.48,23.92-.12,1.19-.19,2.34-.19,3.53,0,10.6,4.84,20.2,12.52,26.84l-3.88,7.1"/>
        <path class="cls-6" d="M776.49,748.38c-5.68-6.34-9.14-14.55-9.14-23.5,0-5.41,1.27-10.56,3.49-15.17,8.18-16.82,33.87-29.07,64.36-29.07,8.29,0,16.24,.88,23.58,2.57-1.61,1.77-2.88,3.72-4.15,5.68-6.11-1.19-12.63-1.84-19.43-1.84-27.92,0-51.3,10.87-58.06,25.54-1.8,3.72-2.8,7.91-2.8,12.29,0,8.91,4.19,16.9,10.71,22.35l-10.1,16.51-5.41-4.3,6.95-11.06h0Z"/>
        <path class="cls-6" d="M786.82,693.04c-7.33,4.65-12.9,10.33-15.97,16.67-2.23,4.61-3.49,9.75-3.49,15.17,0,8.95,3.46,17.16,9.14,23.5l-6.14,9.95c-5.88-7.53-9.29-16.36-9.29-25.73,0-16.13,10.25-30.22,25.77-39.55h0Z"/>
        <path class="cls-6" d="M960.15,657.68c6.76,0,12.6,4.45,13.98,10.48,.88,5.3,1.46,11.33,1.57,17.74,.04,.69-.04,1.34-.04,2,0,.77,.15,1.57,.19,2.34,.23,13.52,2.15,25.42,4.88,32.72l-20.58,19.74-20.85-19.74c2.76-7.3,4.68-19.2,4.95-32.72,0-.77,.15-1.57,.15-2.34,0-.65-.04-1.31-.04-2,.12-6.41,.69-12.44,1.57-17.74,1.38-6.03,7.45-10.48,14.21-10.48h0Z"/>
        <path class="cls-6" d="M960.15,664.09c3.49,0,6.45,2.23,7.18,5.34,.88,5.03,1.42,10.75,1.54,16.82,0,.61-.04,1.23-.04,1.84,0,.77,.12,1.5,.15,2.27,.19,12.75,2.04,24,4.65,30.91l-13.59,12.86-13.59-12.86c2.57-6.91,4.42-18.16,4.65-30.91,0-.77,.15-1.5,.15-2.27,0-.61-.04-1.23-.04-1.84,.12-6.07,.65-11.79,1.54-16.82,.69-3.11,3.92-5.34,7.41-5.34Z"/>
        <path class="cls-6" d="M1054.85,735.05l-5.34,4.26-7.99-13.06c8.68-5.3,14.63-14.52,14.63-25,0-1.19-.08-2.34-.23-3.49-.81-16.67-21.12-30.41-46.85-30.41-13.4,0-25.46,3.65-33.95,9.52-.23-2.57-.46-4.8-.84-7.14,9.37-5.45,21.5-8.76,34.79-8.76,29.61,0,52.76,16.86,53.88,36.75,.12,1.19,.19,2.34,.19,3.53,0,10.6-4.88,20.2-12.56,26.84l4.26,6.95"/>
        <path class="cls-6" d="M1054.5,735.21c10.1-7.56,16.4-17.82,16.4-29.11,0-12.98-8.52-24.58-21.43-32.29,7.95,6.41,12.79,14.71,13.48,23.92,.12,1.19,.19,2.34,.19,3.53,0,10.6-4.88,20.2-12.56,26.84l3.92,7.1"/>
        <path class="cls-6" d="M1143.67,748.38c5.64-6.34,9.14-14.55,9.14-23.5,0-5.41-1.27-10.56-3.49-15.17-8.22-16.82-33.87-29.07-64.36-29.07-8.29,0-16.24,.88-23.62,2.57,1.65,1.77,2.92,3.72,4.19,5.68,6.07-1.19,12.63-1.84,19.43-1.84,27.92,0,51.26,10.87,58.02,25.54,1.8,3.72,2.8,7.91,2.8,12.29,0,8.91-4.19,16.9-10.71,22.35l10.1,16.51,5.45-4.3-6.95-11.06Z"/>
        <path class="cls-6" d="M1133.34,693.04c7.33,4.65,12.9,10.33,15.97,16.67,2.23,4.61,3.49,9.75,3.49,15.17,0,8.95-3.49,17.16-9.14,23.5l6.14,9.95c5.88-7.53,9.25-16.36,9.25-25.73,0-16.13-10.25-30.22-25.73-39.55h0Z"/>
        <ellipse class="cls-2" cx="960.19" cy="642.43" rx="17.01" ry="16.13"/>
        <path class="cls-6" d="M955.74,597.27v8.68h-9.29v8.83h9.29v25.38h-11.71c-.12,.81-.84,1.42-.84,2.27,0,2.23,.46,4.38,1.34,6.3,0,.08,.08,.08,.12,.12h31.18s.08-.04,.12-.12c.84-1.92,1.34-4.07,1.34-6.3,0-.84-.73-1.46-.84-2.27h-11.37v-25.38h9.29v-8.83h-9.29v-8.68h-9.33Z"/>
      </g>
      <g>
        <ellipse class="cls-10" cx="960.15" cy="725.53" rx="7.33" ry="6.91"/>
        <ellipse class="cls-10" cx="960.15" cy="711.94" rx="7.33" ry="6.91"/>
        <ellipse class="cls-10" cx="960.15" cy="697.34" rx="5.84" ry="5.53"/>
        <ellipse class="cls-10" cx="960.15" cy="684.21" rx="4.22" ry="3.99"/>
        <ellipse class="cls-10" cx="960.15" cy="672.69" rx="3.38" ry="3.19"/>
        <ellipse class="cls-10" cx="763.93" cy="762.89" rx="4.22" ry="3.99"/>
        <ellipse class="cls-10" cx="758.17" cy="752.72" rx="4.22" ry="3.99"/>
        <ellipse class="cls-10" cx="754.33" cy="740.89" rx="4.22" ry="3.99"/>
        <ellipse class="cls-10" cx="753.83" cy="728.22" rx="4.22" ry="3.99"/>
        <ellipse class="cls-10" cx="756.94" cy="715.78" rx="4.22" ry="3.99"/>
        <ellipse class="cls-10" cx="763.43" cy="704.45" rx="4.22" ry="3.99"/>
        <ellipse class="cls-10" cx="772.07" cy="695.12" rx="4.22" ry="3.99"/>
        <ellipse class="cls-10" cx="782.13" cy="687.4" rx="4.22" ry="3.99"/>
        <ellipse class="cls-10" cx="794.11" cy="681.06" rx="4.22" ry="3.99"/>
        <ellipse class="cls-10" cx="806.55" cy="676.57" rx="4.22" ry="3.99"/>
        <ellipse class="cls-10" cx="820.45" cy="674.07" rx="4.22" ry="3.99"/>
        <ellipse class="cls-10" cx="833.66" cy="673.38" rx="4.22" ry="3.99"/>
        <ellipse class="cls-10" cx="846.6" cy="673.84" rx="4.22" ry="3.99"/>
        <ellipse class="cls-10" cx="860.97" cy="730.83" rx="4.22" ry="3.99"/>
        <ellipse class="cls-10" cx="853.79" cy="720.58" rx="4.22" ry="3.99"/>
        <ellipse class="cls-10" cx="849.98" cy="709.44" rx="4.22" ry="3.99"/>
        <ellipse class="cls-10" cx="850.44" cy="697.23" rx="4.22" ry="3.99"/>
        <ellipse class="cls-10" cx="853.09" cy="684.94" rx="4.22" ry="3.99"/>
        <ellipse class="cls-10" cx="859.55" cy="673.84" rx="4.22" ry="3.99"/>
        <ellipse class="cls-10" cx="869.38" cy="666.12" rx="4.22" ry="3.99"/>
        <ellipse class="cls-10" cx="880.86" cy="659.75" rx="4.22" ry="3.99"/>
        <ellipse class="cls-10" cx="893.57" cy="655.95" rx="4.22" ry="3.99"/>
        <ellipse class="cls-10" cx="906.74" cy="653.68" rx="4.22" ry="3.99"/>
        <ellipse class="cls-10" cx="919.68" cy="653.88" rx="4.22" ry="3.99"/>
        <ellipse class="cls-10" cx="933.08" cy="656.14" rx="4.22" ry="3.99"/>
        <ellipse class="cls-10" cx="945.52" cy="660.44" rx="4.22" ry="3.99"/>
        <ellipse class="cls-10" cx="974.59" cy="660.44" rx="4.22" ry="3.99"/>
        <ellipse class="cls-10" cx="987.03" cy="656.14" rx="4.22" ry="3.99"/>
        <ellipse class="cls-10" cx="1000.47" cy="653.88" rx="4.22" ry="3.99"/>
        <ellipse class="cls-10" cx="1013.38" cy="653.68" rx="4.22" ry="3.99"/>
        <ellipse class="cls-10" cx="1026.59" cy="655.95" rx="4.22" ry="3.99"/>
        <ellipse class="cls-10" cx="1039.26" cy="659.75" rx="4.22" ry="3.99"/>
        <ellipse class="cls-10" cx="1050.78" cy="666.12" rx="4.22" ry="3.99"/>
        <ellipse class="cls-10" cx="1060.57" cy="673.84" rx="4.22" ry="3.99"/>
        <ellipse class="cls-10" cx="1067.06" cy="684.94" rx="4.22" ry="3.99"/>
        <ellipse class="cls-10" cx="1069.71" cy="697.23" rx="4.22" ry="3.99"/>
        <ellipse class="cls-10" cx="1070.17" cy="709.44" rx="4.22" ry="3.99"/>
        <ellipse class="cls-10" cx="1066.33" cy="720.58" rx="4.22" ry="3.99"/>
        <ellipse class="cls-10" cx="1059.19" cy="730.83" rx="4.22" ry="3.99"/>
        <ellipse class="cls-10" cx="1073.55" cy="673.84" rx="4.22" ry="3.99"/>
        <ellipse class="cls-10" cx="1086.49" cy="673.38" rx="4.22" ry="3.99"/>
        <ellipse class="cls-10" cx="1099.7" cy="674.07" rx="4.22" ry="3.99"/>
        <ellipse class="cls-10" cx="1113.6" cy="676.57" rx="4.22" ry="3.99"/>
        <ellipse class="cls-10" cx="1126.04" cy="681.06" rx="4.22" ry="3.99"/>
        <ellipse class="cls-10" cx="1138.02" cy="687.4" rx="4.22" ry="3.99"/>
        <ellipse class="cls-10" cx="1148.04" cy="695.12" rx="4.22" ry="3.99"/>
        <ellipse class="cls-10" cx="1156.68" cy="704.45" rx="4.22" ry="3.99"/>
        <ellipse class="cls-10" cx="1163.17" cy="715.78" rx="4.22" ry="3.99"/>
        <ellipse class="cls-10" cx="1166.28" cy="728.22" rx="4.22" ry="3.99"/>
        <ellipse class="cls-10" cx="1165.82" cy="740.89" rx="4.22" ry="3.99"/>
        <ellipse class="cls-10" cx="1161.98" cy="752.72" rx="4.22" ry="3.99"/>
        <ellipse class="cls-10" cx="1156.22" cy="762.89" rx="4.22" ry="3.99"/>
      </g>
      <g>
        <path class="cls-6" d="M960.58,868.53c-47.08-.08-89.28-5.64-119.39-14.71-2.19-.69-3.34-2.69-3.23-4.8-.04-2,1.11-3.84,3.23-4.49,30.11-9.06,72.31-14.63,119.39-14.71,47.12,.08,89.28,5.64,119.39,14.71,2.11,.65,3.23,2.5,3.19,4.49,.12,2.11-1.04,4.11-3.19,4.8-30.11,9.06-72.27,14.63-119.39,14.71"/>
        <path class="cls-6" d="M960.27,829.79c-47.65,.12-90.43,6.07-120.54,15.36,2.5-1.19,2.27-4.3-.84-12.29-3.76-9.72-9.6-9.29-9.6-9.29,33.25-9.83,79.6-15.97,131.17-16.05,51.61,.08,98.3,6.22,131.6,16.05,0,0-5.88-.42-9.64,9.29-3.11,7.99-3.34,11.1-.81,12.29-30.11-9.29-73.69-15.24-121.34-15.36"/>
        <path class="cls-6" d="M960.46,807.55c-51.57,.08-97.92,6.22-131.17,16.05-2.23,.65-4.57-.19-5.3-2.3-.73-2.11,.46-4.53,2.69-5.18,33.45-10.25,80.95-16.7,133.79-16.82,52.88,.12,100.57,6.57,134.02,16.82,2.23,.65,3.42,3.07,2.69,5.18-.73,2.11-3.07,2.96-5.3,2.3-33.29-9.83-79.8-15.97-131.4-16.05"/>
        <path class="cls-6" d="M960.77,767.16l4.72,.84c-.73,1.92-.92,4.03-.92,6.26,0,9.87,8.49,17.86,18.89,17.86,8.37,0,15.51-5.18,17.93-12.33,.31,.19,1.8-6.45,2.61-6.37,.65,.08,.58,6.91,.84,6.8,1.19,8.99,9.45,15.09,18.7,15.09,10.41,0,18.85-7.99,18.85-17.86,0-.73-.04-1.46-.15-2.19l5.91-5.84,3.19,7.45c-1.27,2.34-1.77,4.99-1.77,7.8,0,9.45,8.06,17.05,18.01,17.05,6.26,0,11.75-3,14.98-7.56l3.8-4.8-.04,5.88c0,5.95,2.53,11.25,8.29,12.21,0,0,6.64,.38,15.48-6.53,8.79-6.91,13.63-12.63,13.63-12.63l.77,6.91s-7.3,11.33-15.24,15.94c-4.38,2.53-10.98,5.18-16.24,4.34-5.53-.92-9.52-5.38-11.56-10.52-3.96,2.34-8.64,3.72-13.63,3.72-10.79,0-20.47-5.91-24.27-14.82-4.95,5.38-11.87,8.64-19.97,8.64-8.6,0-16.47-3.88-21.39-9.83-4.88,4.45-11.44,7.18-18.74,7.18-9.52,0-18.01-4.68-22.81-11.71-4.8,7.03-13.29,11.71-22.81,11.71-7.26,0-13.86-2.73-18.7-7.18-4.92,5.95-12.83,9.83-21.43,9.83-8.1,0-14.98-3.26-19.93-8.64-3.84,8.91-13.52,14.82-24.27,14.82-5.03,0-9.68-1.38-13.63-3.72-2.07,5.15-6.03,9.6-11.6,10.52-5.22,.84-11.83-1.8-16.2-4.34-7.99-4.61-15.28-15.94-15.28-15.94l.77-6.91s4.88,5.72,13.67,12.63c8.79,6.95,15.44,6.53,15.44,6.53,5.8-.96,8.29-6.26,8.29-12.21l-.04-5.88,3.8,4.8c3.23,4.57,8.76,7.56,14.98,7.56,9.95,0,18.01-7.6,18.01-17.05,0-2.8-.5-5.45-1.77-7.8l3.19-7.45,5.91,5.84c-.08,.73-.15,1.46-.15,2.19,0,9.87,8.45,17.86,18.85,17.86,9.29,0,17.51-6.11,18.74-15.09,.23,.12,.19-6.72,.84-6.8,.77-.08,2.3,6.57,2.57,6.37,2.46,7.14,9.56,12.33,17.97,12.33,10.41,0,18.85-7.99,18.85-17.86,0-2.23-.12-4.34-.92-6.26l4.95-.84"/>
        <path class="cls-6" d="M800.14,792.27c-.42-1.42-1.34-2.88-2.76-4.07-3.03-2.61-7.07-3.03-9.06-.96-.27,.27-.5,.65-.65,.96,0,0-4.26-7.99-9.25-10.68-4.95-2.69-13.4-2-13.4-2,0-6.14,4.99-11.1,11.48-11.1,3.8,0,7.37,1.57,9.52,4.26l.88-4.11s5.22,1.04,7.6,6.99-.23,14.59-.23,14.59c0,0,1.31-3.69,3.26-6.18,1.96-2.46,6.95-5.15,9.56-6.37,2.57-1.19,5.26-3.03,5.26-3.03,0,0,.12,.69,.19,2.34,.12,1.96-.04,3.19-.04,3.19,4.76-.65,10.33,.15,14.71,1.84-1.88,3.65-5.41,7.07-10.06,8.83,0,0,1.69,1.38,3.19,2.88,1.31,1.31,1.69,1.88,1.69,1.88,0,0-3.26,.5-4.88,.73-1.65,.19-7.07,1.08-10.33,.84-2.38-.15-5.07-.54-6.68-.84"/>
        <path class="cls-8" d="M788.31,787.24c2-2.07,6.03-1.65,9.06,.96,3.07,2.57,3.92,6.37,1.96,8.41-1.96,2.07-6.03,1.61-9.06-.96-3.03-2.61-3.92-6.37-1.96-8.41"/>
        <path class="cls-10" d="M830.94,790.69c-1.08-3.19-.12-6.34,2.19-7.03,2.3-.73,5.07,1.27,6.14,4.45s.12,6.34-2.19,7.07c-2.3,.69-5.03-1.31-6.14-4.49"/>
        <path class="cls-6" d="M868.3,775.14c-1.27-1.04-2.27-2.46-2.57-4.15s.04-3.34,.88-4.72c0,0-3.38-1.69-7.03-2.65-2.76-.73-7.64-.77-9.1-.77-1.46-.08-4.42-.12-4.42-.12,0,0,.27,.65,1.08,2.11,1.04,1.77,1.92,2.88,1.92,2.88-4.88,1.11-9.02,4.3-11.64,8.03,3.8,2.61,8.83,4.22,13.82,3.72,0,0-.46,1.31-.77,3.3-.23,1.65-.23,2.34-.23,2.34,0,0,2.73-1,4.11-1.5,1.34-.5,5.91-2.11,8.26-3.69,3.07-2.07,5.68-4.8,5.68-4.8"/>
        <path class="cls-6" d="M866.61,735.94c4.07,2.57,7.6,6.87,8.83,11.64,0,0,.5-.96,2.73-2.27,2.27-1.27,4.19-1.23,4.19-1.23,0,0-.65,3.72-.96,5.07-.35,1.31-.35,5.3-1.23,8.91-.88,3.57-2.42,6.45-2.42,6.45-1.61-1.31-3.8-1.96-6.07-1.57-2.23,.38-4.07,1.69-5.07,3.46,0,0-2.53-2.23-4.65-5.3-2.11-3.11-3.57-6.84-4.34-7.99-.81-1.15-2.76-4.42-2.76-4.42,0,0,1.8-.69,4.38-.19,2.57,.46,3.38,1.23,3.38,1.23-.54-4.92,1.08-10.06,3.99-13.79"/>
        <path class="cls-6" d="M879.24,773.3c.84-1.34,1.23-3.03,.92-4.72s-1.23-3.11-2.53-4.11c0,0,2.57-2.73,5.64-4.84,2.3-1.57,6.91-3.15,8.26-3.65,1.38-.5,4.11-1.54,4.11-1.54,0,0,0,.69-.23,2.34-.31,2-.77,3.34-.77,3.34,4.99-.54,10.06,1.11,13.86,3.76-2.65,3.72-6.8,6.87-11.67,7.99,0,0,.88,1.08,1.92,2.84,.81,1.5,1.08,2.15,1.08,2.15,0,0-2.96-.08-4.42-.12-1.46,0-6.34-.04-9.1-.77-3.65-.96-7.07-2.65-7.07-2.65"/>
        <ellipse class="cls-8" cx="873.1" cy="769.73" rx="8.33" ry="7.91"/>
        <path class="cls-10" d="M913,774.8c-.42-3.34,1.19-6.26,3.57-6.53,2.42-.27,4.72,2.19,5.15,5.53,.42,3.3-1.15,6.26-3.57,6.53-2.38,.27-4.68-2.19-5.15-5.53"/>
        <path class="cls-6" d="M954.24,767.35c-1.23-1.38-2.04-3.15-2.04-5.11s.73-3.72,1.96-5.07c0,0-3.42-2.57-7.26-4.3-2.96-1.34-8.37-2.27-9.98-2.57-1.65-.31-4.92-.92-4.92-.92,0,0,.15,.77,.77,2.57,.77,2.15,1.54,3.57,1.54,3.57-5.64,.31-10.94,3.11-14.63,6.76,3.69,3.61,8.99,6.37,14.63,6.72,0,0-.77,1.38-1.54,3.57-.61,1.77-.77,2.57-.77,2.57,0,0,3.26-.61,4.92-.92,1.61-.31,7.03-1.23,9.98-2.57,3.84-1.77,7.33-4.26,7.33-4.26"/>
        <path class="cls-6" d="M960.42,723.3c4.03,3.65,7.1,9.06,7.49,14.67,0,0,.73-1.04,3.49-2.04,2.8-1,4.92-.61,4.92-.61,0,0-1.5,4.03-2.11,5.45-.65,1.42-1.5,5.88-3.23,9.72-1.69,3.84-4.03,6.76-4.03,6.76-1.54-1.73-3.84-2.88-6.41-2.88s-4.88,1.15-6.41,2.88c0,0-2.34-2.92-4.03-6.76-1.73-3.84-2.57-8.29-3.23-9.72-.65-1.42-2.15-5.45-2.15-5.45,0,0,2.15-.38,4.92,.61s3.53,2.04,3.53,2.04c.38-5.61,3.3-11.02,7.26-14.67"/>
        <path class="cls-6" d="M966.76,767.35c1.27-1.38,2.04-3.15,2.04-5.11s-.73-3.72-1.96-5.07c0,0,3.42-2.57,7.3-4.3,2.92-1.34,8.33-2.27,9.98-2.57,1.61-.31,4.84-.92,4.84-.92,0,0-.08,.77-.73,2.57-.77,2.15-1.54,3.57-1.54,3.57,5.64,.31,10.98,3.11,14.63,6.76-3.65,3.61-8.95,6.37-14.63,6.72,0,0,.77,1.38,1.54,3.57,.61,1.77,.73,2.57,.73,2.57l-4.84-.92c-1.65-.31-7.07-1.23-9.98-2.57-3.88-1.77-7.37-4.26-7.37-4.26"/>
        <ellipse class="cls-8" cx="960.54" cy="762.24" rx="8.33" ry="7.91"/>
        <path class="cls-10" d="M1008.31,774.8c.42-3.34-1.15-6.26-3.57-6.53-2.42-.27-4.72,2.19-5.15,5.53-.42,3.3,1.19,6.26,3.57,6.53,2.42,.27,4.72-2.19,5.15-5.53"/>
        <path class="cls-6" d="M1042.1,773.3c-.84-1.34-1.23-3.03-.96-4.72,.35-1.69,1.27-3.11,2.57-4.11,0,0-2.57-2.73-5.64-4.84-2.34-1.57-6.91-3.15-8.29-3.65-1.34-.5-4.07-1.54-4.07-1.54,0,0-.04,.69,.23,2.34,.31,2,.73,3.34,.73,3.34-4.95-.54-10.02,1.11-13.82,3.76,2.61,3.72,6.8,6.87,11.64,7.99,0,0-.88,1.08-1.88,2.84-.84,1.5-1.08,2.15-1.08,2.15l4.38-.12c1.46,0,6.37-.04,9.1-.77,3.65-.96,7.07-2.65,7.07-2.65"/>
        <path class="cls-6" d="M1054.73,735.94c-4.07,2.57-7.6,6.87-8.87,11.64,0,0-.46-.96-2.73-2.27-2.23-1.27-4.19-1.23-4.19-1.23,0,0,.65,3.72,1,5.07,.35,1.31,.35,5.3,1.19,8.91,.88,3.57,2.46,6.45,2.46,6.45,1.61-1.31,3.8-1.96,6.03-1.57,2.27,.38,4.07,1.69,5.11,3.46,0,0,2.53-2.23,4.65-5.3,2.07-3.11,3.53-6.84,4.3-7.99,.81-1.15,2.76-4.42,2.76-4.42,0,0-1.8-.69-4.38-.19-2.57,.46-3.38,1.23-3.38,1.23,.58-4.92-1.08-10.06-3.96-13.79"/>
        <path class="cls-6" d="M1053,775.14c1.31-1.04,2.3-2.46,2.57-4.15,.35-1.69,0-3.34-.84-4.72,0,0,3.38-1.69,7.03-2.65,2.76-.73,7.64-.77,9.06-.77,1.5-.08,4.42-.12,4.42-.12,0,0-.23,.65-1.08,2.11-1,1.77-1.88,2.88-1.88,2.88,4.84,1.11,8.99,4.3,11.64,8.03-3.8,2.61-8.87,4.22-13.82,3.72,0,0,.42,1.31,.73,3.3,.23,1.65,.23,2.34,.23,2.34,0,0-2.73-1-4.07-1.5-1.38-.5-5.95-2.11-8.29-3.69-3.03-2.07-5.68-4.8-5.68-4.8"/>
        <ellipse class="cls-8" cx="1048.24" cy="769.73" rx="8.33" ry="7.91"/>
        <path class="cls-10" d="M1090.41,790.69c1.08-3.19,.12-6.34-2.19-7.03-2.3-.73-5.07,1.27-6.18,4.45-1.08,3.19-.12,6.34,2.19,7.07,2.3,.69,5.07-1.31,6.18-4.49"/>
        <path class="cls-6" d="M1121.16,792.27c.42-1.42,1.38-2.88,2.76-4.07,3.03-2.61,7.1-3.03,9.06-.96,.27,.27,.54,.65,.69,.96,0,0,4.22-7.99,9.22-10.68,4.99-2.69,13.44-2,13.44-2,0-6.14-5.03-11.1-11.52-11.1-3.8,0-7.37,1.57-9.48,4.26l-.88-4.11s-5.22,1.04-7.6,6.99,.19,14.59,.19,14.59c0,0-1.27-3.69-3.23-6.18-1.96-2.46-6.95-5.15-9.56-6.37-2.61-1.19-5.26-3.03-5.26-3.03,0,0-.12,.69-.23,2.34-.08,1.96,.08,3.19,.08,3.19-4.8-.65-10.37,.15-14.71,1.84,1.84,3.65,5.38,7.07,10.02,8.83,0,0-1.65,1.38-3.19,2.88-1.27,1.31-1.65,1.88-1.65,1.88,0,0,3.26,.5,4.88,.73,1.65,.19,7.07,1.08,10.29,.84,2.42-.15,5.07-.54,6.68-.84"/>
        <path class="cls-8" d="M1132.99,787.24c-1.96-2.07-6.03-1.65-9.06,.96-3.03,2.57-3.92,6.37-1.96,8.41,1.96,2.07,6.03,1.61,9.06-.96,3.03-2.61,3.92-6.37,1.96-8.41"/>
      </g>
      <g>
        <path class="cls-5" d="M960.46,862.35c-42.47-.04-80.91-4.95-110.13-12.52,29.22-7.56,67.66-12.17,110.13-12.25,42.51,.08,81.14,4.68,110.36,12.25-29.22,7.56-67.85,12.48-110.36,12.52h0Z"/>
        <path class="cls-11" d="M990.87,861.24v-23.08m-11.6,23.85l.15-24.46m-8.6,24.77v-24.92"/>
        <path class="cls-11" d="M963.65,862.62v-25.23"/>
        <path class="cls-11" d="M956.77,862.62v-25.23"/>
        <path class="cls-11" d="M950.32,862.62v-25.23"/>
        <path class="cls-11" d="M943.91,862.62v-25.23"/>
        <path class="cls-11" d="M938.19,862.62v-25.23"/>
        <path class="cls-11" d="M927.28,861.24l-.15-22.92m5.34,23.23v-24"/>
        <path class="cls-11" d="M917.22,860.2v-21.12m5.11,21.73l-.15-22.5"/>
        <path class="cls-11" d="M903.74,859.01v-18.59m4.42,18.89v-19.51m4.57,20.12v-20.28"/>
        <path class="cls-11" d="M899.02,858.85v-17.97"/>
        <path class="cls-11" d="M894.6,857.93v-16.74"/>
        <path class="cls-11" d="M889.88,857.51v-15.59"/>
        <path class="cls-11" d="M880.2,856.13l-.15-12.36m5.11,12.98v-13.9"/>
        <path class="cls-11" d="M875.25,855.09v-10.91"/>
        <path class="cls-11" d="M870.68,854.21v-9.06"/>
        <path class="cls-11" d="M865.73,852.98v-7.1"/>
        <path class="cls-11" d="M860.62,852.4v-5.3"/>
        <path class="cls-11" d="M855.24,851.17v-2.57"/>
        <path class="cls-11" d="M845.26,851.17c29.76-8.37,70.23-13.52,115.2-13.59,45,.08,85.67,5.22,115.43,13.59"/>
        <path class="cls-8" d="M832.2,833.89l4.68-6.11,12.94,1.65-10.33,7.53-7.3-3.07"/>
        <path class="cls-10" d="M860.28,826.68c0-2.23,1.88-3.99,4.22-3.99s4.22,1.77,4.22,3.99-1.88,3.99-4.22,3.99-4.22-1.8-4.22-3.99"/>
        <path class="cls-12" d="M897.18,825.87l-9.06,1.04c-2.34,.27-4.49-1.27-4.76-3.46-.31-2.19,1.34-4.19,3.69-4.42l9.1-1.08,9.29-1.08c2.3-.27,4.42,1.27,4.68,3.46,.27,2.19-1.38,4.19-3.69,4.45l-9.25,1.08"/>
        <path class="cls-10" d="M923.67,819.26c0-2.23,1.88-3.99,4.22-3.99s4.22,1.77,4.22,3.99-1.92,3.99-4.22,3.99-4.22-1.8-4.22-3.99"/>
        <path class="cls-8" d="M960.58,822.37h-12.63c-2.3,0-4.26-1.77-4.26-3.96s1.88-3.99,4.22-3.99h25.5c2.34,0,4.22,1.77,4.22,3.99s-1.96,3.96-4.26,3.96h-12.79"/>
        <path class="cls-10" d="M989.03,819.26c0-2.23,1.92-3.99,4.22-3.99s4.22,1.77,4.22,3.99-1.88,3.99-4.22,3.99-4.22-1.8-4.22-3.99"/>
        <path class="cls-12" d="M1023.97,825.87l9.06,1.04c2.3,.27,4.49-1.27,4.76-3.46s-1.38-4.19-3.69-4.42l-9.1-1.08-9.29-1.08c-2.34-.27-4.42,1.27-4.68,3.46-.31,2.19,1.38,4.19,3.69,4.45l9.25,1.08"/>
        <path class="cls-10" d="M1052.43,826.68c0-2.23,1.88-3.99,4.22-3.99s4.22,1.77,4.22,3.99-1.88,3.99-4.22,3.99-4.22-1.8-4.22-3.99"/>
        <path class="cls-8" d="M1088.91,833.89l-4.65-6.11-12.94,1.65,10.33,7.53,7.26-3.07"/>
      </g>
    </g>
    <g id="shield">
      <g id="Granada">
        <path class="cls-1" d="M961.88,1322.23c-50.23,0-100.03-12.29-141.89-32.79-30.84-15.28-51.3-46.08-51.3-81.37v-127.87h385.61v127.87c0,35.29-20.43,66.09-51.3,81.37-41.86,20.51-90.85,32.79-141.12,32.79h0Z"/>
        <path class="cls-13" d="M971.17,1265.47c8.03,2.42,12.1,8.41,12.1,15.4,0,9.14-8.83,16.05-20.35,16.05s-20.81-6.91-20.81-16.05c0-6.87,3.84-14.59,11.83-15.13,0,0-.23-.73-.92-1.92-.84-.88-2.46-2.53-2.46-2.53,0,0,3.03-.58,4.8,.08,1.77,.69,2.96,1.8,2.96,1.8,0,0,.81-1.65,2-2.92,1.15-1.27,2.69-2.04,2.69-2.04,0,0,1.77,1.46,2.34,2.46,.58,1.04,.96,2.27,.96,2.27,0,0,1.61-1.34,3.03-1.88,1.42-.58,3.23-1,3.23-1,0,0-.5,1.77-.84,2.65-.35,.88-.54,2.76-.54,2.76"/>
        <path class="cls-12" d="M961.23,1306.83s-15.28-10.29-21.89-11.67c-8.49-1.8-18.01-.35-22.12-.58,.12,.12,4.95,3.57,7.07,5.68s9.18,6.34,13.17,7.33c12.36,3.11,23.77-.77,23.77-.77"/>
        <path class="cls-12" d="M965.61,1307.75s9.75-10.21,20.01-11.6c12.1-1.69,20.04,1,24.73,2.23,.12,0-3.88,1.88-5.99,3.34-2.11,1.42-7.56,6.03-15.9,6.11-8.37,.12-17.59-.88-19.08-.65-1.54,.23-3.76,.58-3.76,.58"/>
        <path class="cls-8" d="M962.65,1295.16c-3.84-3.57-6.22-8.64-6.22-14.28s2.38-10.68,6.26-14.25c3.8,3.57,6.18,8.64,6.18,14.25s-2.38,10.71-6.22,14.28"/>
        <path class="cls-12" d="M958.77,1316.01s2.34-5.84,2.57-10.87c.23-4.19-.58-8.33-.58-8.33h3.07s1.5,4.45,1.5,8.33-.69,9.1-.69,9.1c0,0-2.11,.31-2.8,.65-.73,.35-3.07,1.11-3.07,1.11"/>
      </g>
      <g id="Aragon">
        <path class="cls-8" d="M961.23,1207.95c0,50.53-42.85,91.47-96.19,91.47s-96.58-40.93-96.58-91.47v-128.06h192.77v128.06"/>
        <path class="cls-6" d="M768.12,1206.22c.58,26.96,11.33,47.04,22,60.17v-189.96h-21.73l-.27,129.79h0Z"/>
        <path class="cls-6" d="M810.55,1283.44c6.03,3.19,14.28,8.52,23.16,10.64l-.58-218.73h-22.58v208.09Z"/>
        <path class="cls-6" d="M853.56,1298.88c8.83,.88,15.4,.73,22.54,0v-223.53h-22.54v223.53Z"/>
        <path class="cls-6" d="M895.95,1294.08c8.83-1.77,18.82-7.26,23.16-10.1v-208.63h-22.58l-.58,218.73h0Z"/>
        <path class="cls-6" d="M940.07,1264.28c9.41-8.37,18.24-27.34,21.47-49l.54-139.93h-22.54l.54,188.93Z"/>
      </g>
      <g id="Navarre">
        <path class="cls-8" d="M1154.5,1079.88v128.06c0,50.53-43.32,91.47-96.65,91.47s-96.61-40.93-96.61-91.47v-128.06h193.27"/>
        <path id="chains_half" data-name="chains half" class="cls-15" d="M1047.21,1175.58c.19-.54,.46-1.04,.73-1.54l-16.36-18.2-6.41,2.76-11.75-13.02,3.84-5.61-20.51-23c-.27,.08-.77,.08-1.04,.15l.12,15.44,6.72,1.92v17.13l-6.72,1.84-.12,15.67c3.23,1,5.68,3.38,6.68,6.41l12.33,.04,1.96-6.41h18.12l1.92,6.41h10.48Zm-26.8-71.04v6.18h10.6v-6.18h-10.6Zm-28.03,78.22c2.46,0,4.45-1.88,4.45-4.22s-2-4.26-4.45-4.26-4.49,1.92-4.49,4.26,2,4.22,4.49,4.22Zm61.4-37.36l-6.76-1.84v-17.13l6.76-1.92-.04-7.37c-3.26-.96-5.8-3.34-6.87-6.41h-10.29l-1.96,6.41h-18.09l-1.96-6.41h-11.87c-.31,.84-.65,1.61-1.11,2.34l20.66,22.89,6.41-2.73,11.75,13.06-3.84,5.57,16.05,17.82c.35-.15,.69-.31,1.08-.46l.08-23.81Zm-27.84-5.34l-4.95,3.99,6.8,7.6,4.95-4.03-6.8-7.56Zm30.74,138.95c-4.76-.25-8.66-3.46-9.65-7.74-6.41-.88-12.48-2.53-18.16-4.99l3.23-5.49c4.95,2.11,10.21,3.49,15.67,4.26,1.19-2.53,3.3-4.45,6.07-5.38l.04-21.58-6.76-1.88v-17.13l6.76-1.84v-29.34c-.27-.08-.5-.19-.77-.35l-15.28,16.97,3.84,5.53-11.75,13.06-6.41-2.73-12.67,14.09c2.19,3.34,2.11,7.68-.42,10.94,3.61,4.03,7.8,7.6,12.44,10.56l-3.23,5.53c-5.45-3.42-10.37-7.64-14.55-12.36-3.34,1-7.14,.42-9.98-1.92-4.42-3.57-4.95-9.83-1.15-13.98l.54-.61c-2.65-5.99-4.45-12.44-5.07-19.2l6.57,.04c.54,5.76,1.96,11.25,4.19,16.4,1.88-.23,3.84-.04,5.61,.61l12.75-14.13-3.84-5.57,11.75-13.06,6.41,2.76,15.32-17.01c-.35-.54-.58-1.11-.81-1.77l-10.6,.04-1.92,6.41h-18.12l-1.96-6.41-12.44-.04c-1.04,2.92-3.46,5.22-6.49,6.22l-.04,15.51-6.57-.04v-15.4c-4.22-1.27-7.33-5.03-7.33-9.48s3.15-8.26,7.37-9.52l.04-15.55-6.76-1.84v-17.13l6.76-1.92v-15.55c-4.15-1.34-7.07-5.07-7.07-9.41,0-5.49,4.68-9.91,10.48-9.91,4.68,0,8.64,2.84,10.02,6.84h11.87l1.96-6.41h18.09l1.96,6.41h10.29c1.37-3.96,5.23-6.79,9.83-6.83l.27,32.14h-3.26v10.02h3.24l-.08,82.91h-3.01v10.02h2.99l-.17,46.22Zm-22.71-70.3l-4.95-3.99-6.84,7.6,4.95,3.99,6.84-7.6Zm-38.25-70.81h-6.49l-.04,10.02h6.53v-10.02Zm35.17,43.81v-6.14h-10.94v6.14h10.94Zm-40.7,37.21l-6.76-1.5-.96-17.09,6.72-2.23v9.83c0,3.8,.35,7.37,1,10.98h0Zm5.61-21.2l6.72,1.57s.35,11.02,.19,8.52c-.15-2.84,.73,8.6,.73,8.6l-6.76,2.23c-.69-3.46-.92-7.07-.92-10.71l.04-10.21Zm41.51,65.01l1.5-6.53c-5.84-1.84-11.25-4.53-16.01-8.03l-4.84,4.26c5.68,4.42,12.25,7.99,19.35,10.29h0Zm-3.26,5.53l-4.99,4.68c-5.64-2.07-10.98-4.84-15.82-8.1l1.46-6.8c5.76,4.34,12.33,7.8,19.35,10.21h0Z"/>
        <path id="chains_half-2" data-name="chains half" class="cls-15" d="M1066.44,1175.58c-.19-.54-.46-1.04-.73-1.54l16.36-18.2,6.41,2.76,11.75-13.02-3.84-5.61,20.51-23c.27,.08,.77,.08,1.04,.15l-.12,15.44-6.72,1.92v17.13l6.72,1.84,.12,15.67c-3.23,1-5.68,3.38-6.68,6.41l-12.33,.04-1.96-6.41h-18.12l-1.92,6.41h-10.48Zm26.8-71.04v6.18h-10.6v-6.18h10.6Zm28.03,78.22c-2.46,0-4.45-1.88-4.45-4.22s2-4.26,4.45-4.26,4.49,1.92,4.49,4.26-2,4.22-4.49,4.22Zm-61.4-37.36l6.76-1.84v-17.13l-6.76-1.92,.04-7.37c3.26-.96,5.8-3.34,6.87-6.41h10.29l1.96,6.41h18.09l1.96-6.41h11.87c.31,.84,.65,1.61,1.11,2.34l-20.66,22.89-6.41-2.73-11.75,13.06,3.84,5.57-16.05,17.82c-.35-.15-.69-.31-1.08-.46l-.08-23.81Zm27.84-5.34l4.95,3.99-6.8,7.6-4.95-4.03,6.8-7.56Zm-30.74,138.95c4.76-.25,8.66-3.46,9.65-7.74,6.41-.88,12.48-2.53,18.16-4.99l-3.23-5.49c-4.95,2.11-10.21,3.49-15.67,4.26-1.19-2.53-3.3-4.45-6.07-5.38l-.04-21.58,6.76-1.88v-17.13l-6.76-1.84v-29.34c.27-.08,.5-.19,.77-.35l15.28,16.97-3.84,5.53,11.75,13.06,6.41-2.73,12.67,14.09c-2.19,3.34-2.11,7.68,.42,10.94-3.61,4.03-7.8,7.6-12.44,10.56l3.23,5.53c5.45-3.42,10.37-7.64,14.55-12.36,3.34,1,7.14,.42,9.98-1.92,4.42-3.57,4.95-9.83,1.15-13.98l-.54-.61c2.65-5.99,4.45-12.44,5.07-19.2l-6.57,.04c-.54,5.76-1.96,11.25-4.19,16.4-1.88-.23-3.84-.04-5.61,.61l-12.75-14.13,3.84-5.57-11.75-13.06-6.41,2.76-15.32-17.01c.35-.54,.58-1.11,.81-1.77l10.6,.04,1.92,6.41h18.12l1.96-6.41,12.44-.04c1.04,2.92,3.46,5.22,6.49,6.22l.04,15.51,6.57-.04v-15.4c4.22-1.27,7.33-5.03,7.33-9.48s-3.15-8.26-7.37-9.52l-.04-15.55,6.76-1.84v-17.13l-6.76-1.92v-15.55c4.15-1.34,7.07-5.07,7.07-9.41,0-5.49-4.68-9.91-10.48-9.91-4.68,0-8.64,2.84-10.02,6.84h-11.87l-1.96-6.41h-18.09l-1.96,6.41h-10.29c-1.37-3.96-5.23-6.79-9.83-6.83l-.27,32.14h3.26v10.02h-3.24l.08,82.91h3.01v10.02h-2.99l.17,46.22Zm22.71-70.3l4.95-3.99,6.84,7.6-4.95,3.99-6.84-7.6Zm38.25-70.81h6.49l.04,10.02h-6.53v-10.02Zm-35.17,43.81v-6.14h10.94v6.14h-10.94Zm40.7,37.21l6.76-1.5,.96-17.09-6.72-2.23v9.83c0,3.8-.35,7.37-1,10.98h0Zm-5.61-21.2l-6.72,1.57s-.35,11.02-.19,8.52c.15-2.84-.73,8.6-.73,8.6l6.76,2.23c.69-3.46,.92-7.07,.92-10.71l-.04-10.21Zm-41.51,65.01l-1.5-6.53c5.84-1.84,11.25-4.53,16.01-8.03l4.84,4.26c-5.68,4.42-12.25,7.99-19.35,10.29h0Zm3.26,5.53l4.99,4.68c5.64-2.07,10.98-4.84,15.82-8.1l-1.46-6.8c-5.76,4.34-12.33,7.8-19.35,10.21h0Z"/>
        <path class="cls-18" d="M1046.75,1178.65c0-5.53,4.72-9.98,10.52-9.98s10.48,4.45,10.48,9.98-4.68,9.91-10.48,9.91-10.52-4.42-10.52-9.91"/>
      </g>
      <g id="Castile">
        <path class="cls-8" d="M768.46,1080h192.69v-213.96h-192.69v213.96Z"/>
        <path class="cls-6" d="M834.59,915.49h-3.53v-3.53h-6.22v14.17h6.22v9.79h-13.32v28.38h7.1v56.79h-14.21v29.3h109.13v-29.3h-14.17v-56.79h7.1v-28.38h-13.32v-9.79h6.22v-14.17h-6.22v3.53h-3.57v-3.53h-6.18v3.53h-4.45v-3.53h-6.22v14.17h6.22v9.79h-13.29v-31.07h7.07v-14.21h-7.07v3.57h-3.57v-3.57h-6.22v3.57h-3.53v-3.57h-7.1v14.21h7.1v31.07h-13.32v-9.79h6.22v-14.17h-6.22v3.53h-3.53v-3.53h-7.1v3.53h0Zm-23.96,134.9h109.13m-109.13-7.1h109.13m-109.13-7.1h109.13m-109.13-7.1h109.13m-109.13-7.99h109.13m-94.92-6.22h80.76m-80.76-7.1h80.76m-80.76-7.99h80.76m-80.76-7.07h80.76m-80.76-7.1h80.76m-80.76-7.1h80.76m-80.76-7.1h80.76m-87.86-7.1h94.96m-94.96-7.1h94.96m-94.96-7.1h94.96m-94.96-7.07h94.96m-81.64-7.1h68.31m-40.82-7.1h13.32m-13.32-7.1h13.32m-13.32-7.1h13.32m-13.32-7.1h13.32m-20.43-8.87h27.49m-47.88,30.18h14.17m-20.39-8.87h26.61m-26.61,130.44v-7.1m0-7.1v-7.1m-7.1,7.1v7.1m13.32,0v-7.1m7.07,14.21v-7.1m0-7.1v-7.1m0-7.99v-6.22m0-7.1v-7.99m-7.07,29.3v-7.99m-13.32,7.99v-7.99m27.49,0v7.99m6.22-7.99v-6.22m-20.39-7.1v7.1m14.17-7.1v7.1m13.32-7.1v7.1m-7.1-7.1v-7.99m7.1-7.07v7.07m0-21.27v7.1m-7.1-14.21v7.1m7.1-14.21v7.1m-13.32-7.1v7.1m-14.17-7.1v7.1m-6.22-14.21v7.1m13.29-7.1v7.1m13.32-7.1v7.1m7.1-14.21v7.1m-13.32-7.1v7.1m-14.17-7.1v7.1m-6.22-14.17v7.07m26.61-7.07v7.07m-13.32-21.27v7.1m61.25-7.1h-14.21m20.43-8.87h-26.65m26.65,130.44v-7.1m0-7.1v-7.1m7.1,7.1v7.1m-13.32,0v-7.1m-7.1,14.21v-7.1m0-7.1v-7.1m0-7.99v-6.22m0-7.1v-7.99m7.1,29.3v-7.99m13.32,7.99v-7.99m-27.53,0v7.99m-6.22-7.99v-6.22m20.43-7.1v7.1m-14.21-7.1v7.1m-13.29-7.1v7.1m7.07-7.1v-7.99m-7.07-7.07v7.07m0-21.27v7.1m7.07-14.21v7.1m-7.07-14.21v7.1m13.29-7.1v7.1m14.21-7.1v7.1m6.22-14.21v7.1m-13.32-7.1v7.1m-13.32-7.1v7.1m-7.07-14.21v7.1m13.29-7.1v7.1m14.21-7.1v7.1m6.22-14.17v7.07m-26.65-7.07v7.07m13.32-21.27v7.1m-27.49,71.85v-7.99m0-21.27v-7.1m0,21.31v-7.1m0-21.31v-7.1m0-7.1v-7.07m0-14.21v-7.1m0-7.1v-7.1m-33.72,18.62h14.17m13.32-21.27h13.32m13.29,21.27h14.21"/>
        <path class="cls-6" d="M883.39,1050.39v-18.66c0-3.53-1.77-14.21-18.62-14.21-15.97,0-17.74,10.68-17.74,14.21v18.66h36.36Z"/>
        <path class="cls-6" d="M853.21,1032.61l-8.87-.88c0-3.53,.88-8.87,3.57-10.64l7.99,6.22c-.88,.88-2.69,3.53-2.69,5.3Z"/>
        <path class="cls-6" d="M868.3,1023.74l4.45-7.99c-1.77-.88-5.34-1.77-7.99-1.77-1.77,0-5.34,.88-7.1,1.77l4.42,7.99h6.22Z"/>
        <path class="cls-6" d="M877.17,1032.61l8.87-.88c0-3.53-.88-8.87-3.53-10.64l-7.99,6.22c.88,.88,2.65,3.53,2.65,5.3Z"/>
        <path class="cls-6" d="M851.44,1001.59v-19.55c0-5.3-3.53-9.75-9.75-9.75s-9.75,4.45-9.75,9.75v19.55h19.51Z"/>
        <path class="cls-6" d="M878.94,1001.59v-19.55c0-5.3,3.57-9.75,9.79-9.75s9.75,4.45,9.75,9.75v19.55h-19.55Z"/>
        <path class="cls-6" d="M845.22,953.66l.88-17.74h-16.86l1.8,17.74h14.17Z"/>
        <path class="cls-6" d="M871.87,953.66l1.77-17.74h-16.86l.88,17.74h14.21Z"/>
        <path class="cls-6" d="M885.16,953.66l-1.77-17.74h17.74l-1.77,17.74h-14.21Z"/>
        <g>
          <path class="cls-20" d="M877.17,1050.39v-15.97c0-2.69-1.77-10.68-12.4-10.68-9.75,0-11.56,7.99-11.56,10.68v15.97h23.96Z"/>
          <path class="cls-20" d="M849.68,999.78v-16.86c0-4.42-2.65-8.87-7.99-8.87s-7.99,4.45-7.99,8.87v16.86h15.97Z"/>
          <path class="cls-20" d="M880.74,999.78v-16.86c0-4.42,2.65-8.87,7.99-8.87s7.99,4.45,7.99,8.87v16.86h-15.97Z"/>
        </g>
      </g>
      <g id="Leon">
        <path class="cls-1" d="M961.08,1080h193.23v-213.96h-193.23v213.96Z"/>
        <path class="cls-9" d="M1059.57,918.76l.19-2.38,.35-1.31s-6.18,.5-9.45-.42c-3.26-.92-6.18-2.27-9.22-4.8-3.03-2.61-4.22-4.22-6.41-4.53-5.22-.84-9.22,1.54-9.22,1.54,0,0,3.92,1.42,6.84,5.03,2.92,3.61,6.11,5.41,7.49,5.88,2.27,.69,10.21,.19,12.36,.27,2.19,.12,7.07,.73,7.07,.73h0Z"/>
        <g>
          <path class="cls-3" d="M1088.49,910.08s.04,2.76,.31,5.38c.23,2.57-.84,4.76-.42,6.18,.42,1.42,.61,2.53,1.15,3.57,.54,1,.81,3.61,.81,3.61,0,0-1.46-1.08-2.84-2.07-1.34-1.04-2.3-1.69-2.3-1.69,0,0,.27,2.76,.38,3.96,.15,1.19,.84,3.42,1.96,4.76,1.11,1.27,3.34,3.42,4.03,5.11,.69,1.73,.54,5.53,.54,5.53,0,0-1.77-2.88-3.34-3.42-1.5-.54-4.84-2.38-4.84-2.38,0,0,3.03,3.03,3.03,5.95s-1.23,6.14-1.23,6.14c0,0-1.38-2.61-3.19-4.3-1.8-1.73-4.34-3.46-4.34-3.46,0,0,2,4.49,2,7.49s-.58,9.48-.58,9.48c0,0-1.5-2.46-3.03-3.69-1.54-1.19-3.34-2.23-3.92-3-.54-.81,1.84,2.46,2.07,4.45,.27,1.96,1.23,9.02,7.37,18.01,3.61,5.26,9.18,14.48,21.12,11.44,11.94-3,7.53-19.08,4.99-26.57-2.5-7.49-3.76-15.78-3.61-18.7,.15-2.88,2.23-11.4,1.96-13.02-.27-1.57-.92-7.68,.54-12.6,1.54-5.11,2.8-7.1,3.65-9.22,.81-2.11,1.5-3.3,1.77-5.15,.27-1.84,.27-5.26,.27-5.26,0,0,2.23,4.07,2.8,5.53,.54,1.46,.54,5.76,.54,5.76,0,0,.42-4.3,3.76-6.41,3.34-2.11,7.22-4.34,8.18-5.53s1.27-1.96,1.27-1.96c0,0-.31,7.37-2.38,10.25-1.38,1.88-6.8,8.03-6.8,8.03,0,0,2.8-1.08,4.72-1.15,1.96-.15,3.34,0,3.34,0,0,0-2.38,1.84-5.41,6.3-3.07,4.45-1.8,4.84-4.03,8.52-2.23,3.69-4.03,3.84-6.84,6.07-4.15,3.34-1.92,16.67-1.38,18.66,.58,1.96,7.8,18.28,7.95,22.23,.12,3.96,.81,12.79-6.14,18.43-4.45,3.65-11.79,3.69-13.48,4.72-1.65,1.08-4.95,4.34-4.95,11.17s2.46,7.91,4.42,9.64c1.96,1.69,4.45,.77,4.99,2.11,.58,1.31,.84,2.07,1.69,2.88,.81,.77,1.38,1.69,1.11,3.15-.31,1.46-3.49,4.72-4.61,7.1-1.11,2.34-3.34,8.56-3.34,9.48s-.27,3.8,.69,5.26c0,0,3.49,4.07,1.11,4.84-1.54,.54-3-.96-3.72-.77-2.07,.54-3.19,1.8-3.76,1.73-1.38-.27-1.38-.96-1.54-2.92-.12-1.96-.04-2.76-.65-2.76-.84,0-1.27,.69-1.42,1.73-.15,1.04-.15,3.42-1.11,3.42s-2.34-1.73-3.19-2.11c-.84-.38-3.19-.77-3.34-1.84-.12-1.04,1.38-3.26,2.92-3.69,1.54-.38,2.92-1.15,1.96-1.96-1-.77-1.96-.77-2.92,0-.96,.81-3.03,.15-2.92-1.04,.15-1.19,.42-2.65,.27-3.3-.12-.65-1.8-1.96,.38-3.15,2.27-1.19,3.23,1.04,5.45,.65,2.23-.38,3.3-1.19,4.15-2.5,.84-1.31,.69-4.07-.84-5.76-1.5-1.73-3.03-2-3.61-3.07-.54-1.04-1.38-3.53-1.38-3.53,0,0,.42,4.61,.15,5.26-.27,.65-.15,3.42-.15,3.42,0,0-1.5-1.73-2.76-3.03-1.23-1.31-2.5-5.26-2.5-5.26,0,0-.12,3.69-.12,5.15s1.65,2.76,1.11,3.3c-.58,.5-3.19-2.76-3.92-3.3-.69-.54-2.92-2.23-3.88-4.07-.96-1.84-1.69-4.45-1.96-5.41-.27-.92-.73-5.03-.27-6.07,.69-1.54,1.8-4.34,1.8-4.34h-5.41c-2.92,0-4.99-.88-6.11,1.08-1.11,1.96-.58,5.91,.81,11.06,1.42,5.11,2.23,7.6,1.84,8.52-.42,.92-2.23,3.03-2.92,3.42-.73,.42-2.65,.27-3.49-.12-.81-.38-2.19-1.04-4.84-1.04s-4.3,.12-5.26-.12c-1-.27-3.38-1.46-4.49-1.19-1.11,.27-3.03,1.23-2.5,2.76,.84,2.34-.81,2.88-1.96,2.76-1.11-.15-2.04-.54-3.46-.92-1.38-.42-3.46,0-3.19-1.61,.27-1.57,.84-1.69,1.54-2.84,.69-1.23,.96-2,.15-2.07-.96-.08-1.96-.19-2.69,.42-.77,.61-1.96,1.96-2.92,1.46-1-.54-1.77-1.65-1.77-4.15s-2.61-4.61-.19-4.49c2.38,.12,5.41,1.84,5.95,.5,.54-1.34,.23-1.96-1.08-3-1.31-1.04-2.92-1.65-1.19-2.96,1.73-1.34,2.15-1.34,2.84-2.07,.65-.69,1.57-3.03,2.8-2.46,2.38,1.15,.08,2.8,2.5,5.45,2.38,2.65,3.88,3.61,7.91,3.19,3.99-.42,5.11-.92,5.11-2.07s-.35-3.15-.46-3.99c-.08-.81,.58-3.8,.58-3.8,0,0-1.84,1.15-2.42,2.27-.5,1.11-1.61,3.07-1.61,3.07,0,0-.42-2.3-.31-4.19,.08-1.11,.46-3.03,.42-3.42-.12-1.04-.88-3.61-.88-3.61,0,0-.61,2.8-1.08,3.61-.42,.81-.61,4.11-.61,4.11,0,0-2.57-2.23-1.84-5.95,.5-2.88-.46-6.68,.42-7.91,.84-1.27,2.88-6.3,7.91-6.49,4.99-.19,8.87,.19,10.64,.12,1.73-.12,7.91-1.27,7.91-1.27,0,0-11.4-5.84-13.98-7.6-2.61-1.73-6.64-6.26-7.95-8.29-1.31-2.07-2.5-6.07-2.5-6.07,0,0-2.04,.08-3.92,1.11-1.84,1.04-3.69,2.57-4.76,3.8-1.08,1.23-2.8,4.03-2.8,4.03,0,0,.31-3.61,.31-4.72s-.23-3.3-.23-3.3c0,0-1.27,4.92-3.88,6.76-2.61,1.88-5.64,4.42-5.64,4.42,0,0,.31-2.73,.31-3.38,0-.61,.65-3.8,.65-3.8,0,0-1.84,2.76-4.65,3.3-2.84,.5-6.95,.42-7.3,2.15-.31,1.73,.77,4.11,.12,5.34-.65,1.23-2.07,2.07-2.07,2.07,0,0-1.61-1.34-3.03-1.46-1.38-.12-2.73,.61-2.73,.61,0,0-1.19-1.54-.73-2.57,.42-1,2.57-2.53,2.07-3.19-.58-.61-2.3,.23-3.38,.73-1.08,.54-3.38,1.04-3.15-.73,.19-1.73,.77-2.76,.19-3.99-.54-1.23-.19-2.04,.69-2.34,.84-.31,4.3,.08,4.65-.73,.31-.81-.84-1.84-3.15-2.34-2.27-.54-3.38-1.88-2.19-3,1.23-1.15,1.54-1.46,2.07-2.46,.54-1.04,.77-2.92,2.84-1.96,2.04,.92,1.61,3.19,3.8,3.88,2.15,.73,7.26-.31,8.33-.92s4.57-3.19,5.76-3.8c1.19-.58,6.18-4.3,6.18-4.3,0,0-2.92-2.04-4.03-3.07-1.08-1.04-3-3.49-3.99-4.03-.96-.5-5.76-2.34-7.37-2.46-1.61-.08-6.6-1.84-6.6-1.84,0,0,2.27-.73,3.03-1.34,.73-.61,2.46-2.15,3.34-2.04,.84,.08,1.08,.08,1.08,.08,0,0-4.65-.19-5.64-.5-.96-.31-3.8-2.07-4.88-2.07s-3.23,.42-3.23,.42c0,0,2.92-1.84,5.3-2.27,2.38-.38,4.22-.31,4.22-.31,0,0-3.69-1.04-4.57-2.23-.84-1.27-1.73-3.07-2.38-3.92-.65-.81-1.08-2.15-2.27-2.27s-3.26,1.46-4.45,1.34-2.07-.84-2.19-2.57c-.08-1.77,0-1.15-.38-2.07-.46-.92-2.19-3.07-.58-3.57,1.65-.54,5.11,.31,5.45-.31,.31-.61-1.84-2.5-3.26-3.19-1.42-.73-3.69-1.96-2.5-3,1.19-1,2.38-1.42,3.03-2.34,.65-.92,1.42-3.49,2.84-2.69,1.38,.81,3.34,4.84,4.45,4.53,1.08-.31,1.15-3.19,.96-4.42-.23-1.23,0-3.38,1.08-3.19s1.96,1.65,3.69,1.77c1.73,.08,4.34-.42,4.11,.81-.19,1.23-1.19,2.73-2.38,4.07-1.15,1.38-1.73,4.03-.96,5.76,.77,1.77,2.73,4.57,4.45,5.68,1.73,1.11,4.99,1.96,7.07,3.26,2.04,1.34,6.84,5.15,8.45,5.57s3.26,1.23,3.26,1.23c0,0,1.84-.81,4.34-.81s8.22,.38,10.41-.54,4.99-2.46,4.15-4.42c-.88-1.96-5.64-3.69-5.22-5.22,.42-1.54,2.19-1.65,5.11-1.77,2.92-.08,6.91,.54,7.68-3.61,.77-4.07,1-6.45-3.11-7.37-4.15-.92-7.18-1.04-7.95-3.99-.77-3-1.5-3.72-.65-4.53,.88-.81,2.38-1.23,5.41-1.42,3.07-.23,6.53-.23,7.53-.96,.96-.69,1.15-2.65,2.34-3.49,1.19-.81,5.88-1.54,5.88-1.54,0,0,5.61,2.73,10.75,6.57,4.65,3.46,8.83,8.56,8.83,8.56"/>
          <path class="cls-11" d="M1032.96,934.62s-3.07,.88-4.22,2.57c-1.42,2.04-1.31,4.11-1.31,4.11,0,0,2.61-2.15,5.99-1.27,3.34,.92,3.69,1.27,5.11,1.15,1.42-.12,4.88-1.34,4.88-1.34,0,0-2.84,3.3-2.5,5.57,.31,2.23,.73,3.26,.65,4.42-.23,2.76-2.3,6.18-2.3,6.18,0,0,1.19-.73,4.03-1.34,2.8-.61,5.22-1.96,6.72-3.11,1.5-1.11,3.46-3.92,3.46-3.92,0,0-.61,3.84,0,5.45,.65,1.69,.88,6.41,.88,6.41,0,0,1.8-1.61,3.26-2.38,.73-.42,2.69-1.46,3.46-2.69,.54-.84,1.23-4.07,1.23-4.07,0,0,.42,3.46,1.5,5.15,1.08,1.61,2.69,6.68,2.69,6.68,0,0,1.11-3.3,2.3-4.65,1.19-1.34,2.61-3.07,2.69-4.11,.12-1.04-.31-3.26-.31-3.26l1.5,3.26m-43.81,2.34s1.84-3.19,3.57-4.22c1.77-1,4.15-2.84,4.8-3.07,.61-.19,3.46-1.77,3.46-1.77m3.8,19.85s4.19-2.11,5.41-2.88c2.61-1.54,4.45-4.3,4.45-4.3"/>
          <path class="cls-11" d="M1085.07,925.06s-1.31-1.84-1.61-2.5c-.35-.58-.88-1.84-.88-1.84"/>
          <path class="cls-11" d="M1068.79,988.45s7.83,4.84,7.6,8.87c-.23,3.99-4.34,9.25-4.34,9.25"/>
        </g>
        <path class="cls-7" d="M1048.51,907.16s-.65-1.84-.77-2.38c-.12-.5-.46-1.11-.46-1.11,0,0,3.38,0,3.26,1.04-.08,1.04-1.08,1.04-1.31,1.42-.19,.42-.73,1.04-.73,1.04h0Z"/>
        <path class="cls-7" d="M1063.91,901.82l-.23-1.65s2.96,0,4.34,1c2.19,1.54,3.57,3.92,3.49,4.03-.38,.35-2.07-1.04-3.26-1.42,0,0-.88,.19-1.73,.19s-1.31-.42-1.42-.81c-.12-.46,.12-1.15,.12-1.15l-1.31-.19Z"/>
        <g>
          <path class="cls-7" d="M1048.63,922.14l1.27-2.04,1.31,1.88-2.57,.15"/>
          <path class="cls-7" d="M1051.74,922.06l1.54-2.04,1.65,1.84-3.19,.19"/>
          <path class="cls-7" d="M1050.36,909.43l3.15,1.11-2.84,1.46-.31-2.57"/>
          <path class="cls-7" d="M1054.16,910.46l2.8,.69-2.27,1.77-.54-2.46"/>
        </g>
        <g>
          <path class="cls-9" d="M1005.62,906.55s1.84,1.31,3.26,1.54c1.42,.19,2.92,.19,3.15,.19,.19,0,.65-2.07,.42-3.49-.77-4.61-4.99-5.64-4.99-5.64,0,0,1.27,2.8,.65,4.11-.88,1.84-2.5,3.3-2.5,3.3h0Z"/>
          <path class="cls-9" d="M996.83,910.54s-1.65-2.96-5.11-2.57c-3.46,.42-5.76,3.11-5.76,3.11,0,0,3.84-.12,4.8,.5,1.42,.92,1.84,3.3,1.84,3.3,0,0,2.07-1.23,2.73-2.07,.61-.81,1.5-2.27,1.5-2.27h0Z"/>
          <path class="cls-9" d="M992.6,922.56s-2.96,.42-4.57,2.27c-1.65,1.88-1.38,5.38-1.38,5.38,0,0,1.92-2.07,3.65-2.07s4.45,.61,4.45,.61c0,0-.84-2.15-.84-3.07s-1.31-3.11-1.31-3.11h0Z"/>
          <path class="cls-9" d="M1002.47,961.42s-1.61-1.73-4.45-1.23c-2.84,.54-4.68,3.72-4.68,3.72,0,0,2.42-.65,3.84-.31,1.38,.31,2.38,1.73,2.38,1.73,0,0,1.31-1.11,1.73-1.73,.42-.61,1.19-2.19,1.19-2.19h0Z"/>
          <path class="cls-9" d="M999.21,972.83s-2.38-.38-4.45,1.27c-2.04,1.65-2.15,4.8-2.15,4.8,0,0,1.96-1.65,3.49-1.42,1.5,.19,3.34,1.04,3.34,1.04,0,0,.31-1.96,.42-2.46,.35-1.46-.65-3.23-.65-3.23h0Z"/>
          <path class="cls-9" d="M1004.77,983.35s-.19,3.03,1.27,4.92c1.54,1.96,4.34,2.27,4.34,2.27,0,0-.92-2.04-1.08-3.07-.23-1.54,1.31-2.88,1.31-2.88,0,0-1.42-1.46-2.8-1.46s-3.03,.23-3.03,.23h0Z"/>
          <path class="cls-9" d="M1032.96,1010.38s-1.96-2.46-4.65-2.38c-2.73,.12-5.57,2.65-5.57,2.65,0,0,3.38-.27,4.26,.84,.88,1.15,1.73,2.57,1.73,2.57,0,0,1.54-.81,2.19-1.34,.65-.5,2.04-2.34,2.04-2.34h0Z"/>
          <path class="cls-9" d="M1024.63,1021.17s-3.57-.54-5.34,1.34c-1.73,1.84-1.61,5.22-1.61,5.22,0,0,2.15-2.34,4.11-2.15s4.15,1.23,4.15,1.23c0,0-.35-2.04-.58-3-.19-.92-.73-2.65-.73-2.65h0Z"/>
          <path class="cls-9" d="M1032.35,1032.58s-1.77,2.46-.46,4.42c1.31,1.96,4.03,2.88,4.03,2.88,0,0-1-1.42-.54-3.07,.35-1.31,2.57-3.07,2.57-3.07l-5.61-1.15h0Z"/>
          <path class="cls-9" d="M1079.96,1037.22s-3.11-.73-4.88,.31c-1.73,1-3.15,5.34-3.15,5.34,0,0,2.84-2.38,4.92-2.07,2.04,.31,3.57,1.15,3.57,1.15,0,0,.31-1.77,.08-3-.12-.73-.54-1.73-.54-1.73h0Z"/>
          <path class="cls-9" d="M1081.5,1048.7s-2.38,2.46-1.54,4.53c.88,2.07,2.38,4.22,2.38,4.22,0,0-.08-3.07,.88-3.92,1.42-1.23,4.03-1.42,4.03-1.42,0,0-2.07-1.84-2.73-2.07-.65-.19-3.03-1.34-3.03-1.34Z"/>
          <path class="cls-9" d="M1093.44,1052.31s-1.19,3,1.08,4.92c2.27,2,4.26,2.19,4.26,2.19,0,0-1.77-3.11-1.23-4.72,.58-1.73,2.07-2.76,2.07-2.76,0,0-2.84-.96-3.26-.84-.42,.08-2.92,1.23-2.92,1.23h0Z"/>
        </g>
        <g>
          <path class="cls-6" d="M1086.26,893.61l-1.11,.08c-.04,.12-.54,.92-1,1.34-1,.96-2.5,1.08-3.3,.27-.42-.42-.61-1-.54-1.57-.65,.35-1.34,.35-1.96-.04-1-.58-1.23-1.92-.54-3.03,.12-.23,.23-.54,.42-.69l-.08-1.23-1.34,.31-.38,.73c-.84,.96-2.07,1.19-2.69,.65-.31-.27-.54-1-.5-1.04,0,.04-.35,.35-.65,.42-2.07,.5-2.88-4.03-2.96-5.18l-.65,.96s.61,2.69,.31,4.99c-.31,2.27-1.11,4.57-1.11,4.57,2.84,.73,7.14,3.07,11.4,6.34s7.6,6.84,8.99,9.29c0,0,2.23-1.23,4.53-1.96,2.3-.73,5.22-.77,5.22-.77l.84-.81c-1.23,.19-6.07,.38-5.99-1.65,0-.31,.27-.69,.31-.69-.04,.04-.81-.04-1.15-.23-.69-.5-.69-1.65,.08-2.65l.69-.5,.04-1.31-1.31,.19c-.12,.15-.42,.35-.58,.5-1.04,.88-2.5,.96-3.3,.12-.5-.46-.65-1.11-.42-1.77-.61,.15-1.23,.12-1.73-.19-1-.58-1.19-2-.42-3.07,.35-.54,1.08-1.19,1.19-1.23l-.27-1.15h-.04Z"/>
          <g>
            <path class="cls-7" d="M1077.62,896.26c.19-.27,.58-.23,.88,0s.38,.61,.23,.81c-.19,.23-.58,.23-.92-.04-.27-.19-.38-.58-.19-.77h0Z"/>
            <path class="cls-7" d="M1081.27,899.29l-1.27-.96c-.23-.15-.27-.46-.15-.61,.15-.15,.46-.15,.69,0l1.27,1,1.27,.96c.19,.15,.31,.46,.15,.61-.15,.15-.46,.15-.69,0l-1.27-1"/>
            <path class="cls-7" d="M1074.59,894.72l-1-.58c-.27-.15-.38-.46-.27-.65s.42-.23,.65-.08l1,.61,1,.58c.23,.12,.35,.42,.27,.61-.12,.19-.42,.23-.65,.08l-1-.58"/>
            <path class="cls-7" d="M1070.59,891.99c.19-.23,.61-.23,.92,0,.31,.27,.38,.61,.19,.84-.19,.19-.58,.19-.88-.04-.31-.23-.38-.58-.23-.81h0Z"/>
            <path class="cls-7" d="M1085.3,902.09c.19-.19,.12-.54-.19-.81-.31-.23-.73-.23-.92,0-.15,.19-.08,.58,.23,.81,.31,.23,.69,.23,.88,0h0Z"/>
            <path class="cls-7" d="M1087.49,904.63l.84,.81c.19,.19,.5,.27,.69,.12,.15-.15,.15-.42-.04-.61l-.81-.81-.84-.81c-.19-.19-.54-.27-.69-.12-.19,.12-.15,.42,.04,.61l.81,.81"/>
            <path class="cls-7" d="M1091.14,907.74c.19-.23,.12-.58-.19-.81-.31-.27-.69-.27-.88-.04-.19,.23-.12,.58,.19,.84,.31,.19,.69,.23,.88,0Z"/>
          </g>
          <path class="cls-6" d="M1080.58,884.58l-2.27,.04-.42,3.34,.23,.54,.58-.04,2.92-1.96-1.04-1.92"/>
          <path class="cls-6" d="M1080.58,884.58l-2.27,.04-.42,3.34,.23,.54,.58-.04,2.92-1.96-1.04-1.92"/>
          <path class="cls-6" d="M1074.43,886.43l-.08,2.07,3.53,.46,.58-.27-.08-.58-2.04-2.73-1.92,1.04"/>
          <path class="cls-6" d="M1081.73,890.57l-1.88,1.04-2.07-2.73-.04-.58,.54-.23,3.57,.42-.12,2.07"/>
          <path class="cls-6" d="M1077.16,888c.31-.5,1-.65,1.5-.35,.54,.27,.69,.92,.38,1.42s-1,.65-1.5,.35c-.54-.31-.69-.92-.38-1.42Z"/>
          <path class="cls-6" d="M1068.9,884.54c-.08,.04-.5-1.77-1-2.73-.31-.73-1.5-1.65-1.5-1.65,.12-.19,1.61-.73,3.34,.35,1.46,1.19-.12,3.34-.12,3.34,0,0-.35,.54-.73,.69h0Z"/>
          <path class="cls-6" d="M1072.86,885.73l-1.61,1.42-2.61-2.3,.23-.31,.12-.58,3.53-.27,.35,2.04"/>
          <path class="cls-6" d="M1068.44,884.31c.19-.58,.69-.88,1.08-.77,.42,.15,.58,.69,.38,1.27s-.69,.88-1.11,.77c-.42-.15-.58-.69-.35-1.27Z"/>
          <path class="cls-6" d="M1089.29,890l-2.27-.23-.96,3.26,.19,.54,.58,.04,3.19-1.57-.73-2.04"/>
          <path class="cls-6" d="M1082.92,891l-.38,2.07,3.46,.88,.58-.15,.04-.54-1.65-3.03-2.04,.77"/>
          <path class="cls-6" d="M1089.52,896.1l-2.04,.77-1.61-3,.04-.58,.58-.12,3.42,.88-.38,2.04"/>
          <path class="cls-6" d="M1085.38,892.95c.38-.46,1.08-.5,1.54-.15,.5,.35,.58,1,.19,1.46-.38,.46-1.08,.5-1.57,.15-.46-.35-.54-1-.15-1.46h0Z"/>
          <path class="cls-6" d="M1096.86,897.06l.42,2.11-3.34,1.15-.61-.15-.04-.54,1.38-3.11,2.19,.54"/>
          <path class="cls-6" d="M1096.28,903.17l-2.15,.5-1.19-3.19,.15-.58,.58-.08,3.26,1.34-.65,2"/>
          <path class="cls-6" d="M1090.44,897.25l-.69,2,3.26,1.31,.61-.08,.12-.54-1.15-3.19-2.15,.5"/>
          <path class="cls-6" d="M1094.05,900.98c.46-.42,.46-1.08,.08-1.5-.42-.42-1.11-.42-1.57-.08-.42,.42-.46,1.08-.04,1.5,.38,.42,1.11,.46,1.54,.08h0Z"/>
          <path class="cls-6" d="M1099.35,907.89s1.92,.12,3.03,.35c.77,.15,2,1.04,2,1.04,.23-.15,.46-1.61-1.08-3.03-1.5-1.08-3.38,.84-3.38,.84,0,0-.46,.46-.58,.81h0Z"/>
          <path class="cls-6" d="M1097.28,904.47l-1.11,1.77,2.92,1.96,.35-.31,.5-.15-.46-3.38-2.19,.12"/>
          <path class="cls-6" d="M1099.66,908.28c.54-.27,.81-.84,.58-1.19-.23-.35-.84-.38-1.38-.08-.54,.31-.77,.84-.54,1.19,.19,.35,.81,.38,1.34,.08Z"/>
        </g>
      </g>
      <g id="inescutcheon">
        <ellipse class="cls-8" cx="961.65" cy="1079.08" rx="62.44" ry="70.27"/>
        <ellipse class="cls-2" cx="961.69" cy="1078.92" rx="43.93" ry="51.53"/>
        <g id="fdl">
          <path class="cls-4" d="M940.92,1043.48s-5.18,5.68-5.18,10.98,2.19,9.75,2.19,9.75c-.81-2.11-2.92-3.61-5.41-3.61-3.19,0-5.76,2.42-5.76,5.45,0,.84,.54,2.23,.92,2.96l1.88,3.8c.61-1.42,2.07-2.19,3.76-2.19,2.27,0,4.15,1.73,4.15,3.88,0,.35-.04,.65-.15,.96l-4.68,.04v3.96h4.19l-3.11,6.18,4.11-1.61,3.11,3.49,3.23-3.49,4.11,1.61-3.07-6.18h4.15v-3.96l-4.68-.04c-.08-.31-.08-.61-.08-.96,0-2.15,1.8-3.88,4.07-3.88,1.69,0,3.15,.77,3.76,2.19l1.88-3.8c.38-.73,.92-2.11,.92-2.96,0-3.03-2.57-5.45-5.72-5.45-2.53,0-4.65,1.5-5.41,3.61,0,0,2.19-4.42,2.19-9.75s-5.34-10.98-5.34-10.98h0Z"/>
          <path class="cls-6" d="M932.62,1079.46h16.74v-3.96h-16.74v3.96Z"/>
        </g>
        <g id="fdl-2" data-name="fdl">
          <path class="cls-4" d="M981.73,1043.48s-5.18,5.68-5.18,10.98,2.19,9.75,2.19,9.75c-.81-2.11-2.92-3.61-5.41-3.61-3.19,0-5.76,2.42-5.76,5.45,0,.84,.54,2.23,.92,2.96l1.88,3.8c.61-1.42,2.07-2.19,3.76-2.19,2.27,0,4.15,1.73,4.15,3.88,0,.35-.04,.65-.15,.96l-4.68,.04v3.96h4.19l-3.11,6.18,4.11-1.61,3.11,3.49,3.23-3.49,4.11,1.61-3.07-6.18h4.15v-3.96l-4.68-.04c-.08-.31-.08-.61-.08-.96,0-2.15,1.8-3.88,4.07-3.88,1.69,0,3.15,.77,3.76,2.19l1.88-3.8c.38-.73,.92-2.11,.92-2.96,0-3.03-2.57-5.45-5.72-5.45-2.53,0-4.65,1.5-5.41,3.61,0,0,2.19-4.42,2.19-9.75s-5.34-10.98-5.34-10.98h0Z"/>
          <path class="cls-6" d="M973.44,1079.46h16.74v-3.96h-16.74v3.96Z"/>
        </g>
        <g id="fdl-3" data-name="fdl">
          <path class="cls-4" d="M961.31,1078.58s-5.18,5.68-5.18,10.98,2.19,9.75,2.19,9.75c-.81-2.11-2.92-3.61-5.41-3.61-3.19,0-5.76,2.42-5.76,5.45,0,.84,.54,2.23,.92,2.96l1.88,3.8c.61-1.42,2.07-2.19,3.76-2.19,2.27,0,4.15,1.73,4.15,3.88,0,.35-.04,.65-.15,.96l-4.68,.04v3.96h4.19l-3.11,6.18,4.11-1.61,3.11,3.49,3.23-3.49,4.11,1.61-3.07-6.18h4.15v-3.96l-4.68-.04c-.08-.31-.08-.61-.08-.96,0-2.15,1.8-3.88,4.07-3.88,1.69,0,3.15,.77,3.76,2.19l1.88-3.8c.38-.73,.92-2.11,.92-2.96,0-3.03-2.57-5.45-5.72-5.45-2.53,0-4.65,1.5-5.41,3.61,0,0,2.19-4.42,2.19-9.75s-5.34-10.98-5.34-10.98h0Z"/>
          <path class="cls-6" d="M953.01,1114.56h16.74v-3.96h-16.74v3.96Z"/>
        </g>
      </g>
    </g>
  </g>
</svg>