<?xml version="1.0" encoding="UTF-8"?>
<svg id="Layer_1" data-name="Layer 1" xmlns="http://www.w3.org/2000/svg" xmlns:xlink="http://www.w3.org/1999/xlink" viewBox="0 0 2880 1920">
  <defs>
    <style>
      .cls-1 {
        clip-path: url(#clippath-2);
      }

      .cls-1, .cls-2, .cls-3 {
        fill: none;
      }

      .cls-4 {
        fill: #fff;
      }

      .cls-5 {
        fill: #009b3a;
      }

      .cls-6 {
        fill: #fedf00;
      }

      .cls-7 {
        clip-path: url(#clippath);
      }

      .cls-8 {
        clip-path: url(#clippath-3);
      }

      .cls-3 {
        clip-path: url(#clippath-1);
      }

      .cls-9 {
        fill: #002776;
      }
    </style>
    <clipPath id="clippath">
      <rect class="cls-2" width="2880" height="1920"/>
    </clipPath>
    <clipPath id="clippath-1">
      <rect class="cls-2" x="959.2" y="479.57" width="961.6" height="960.87"/>
    </clipPath>
    <clipPath id="clippath-2">
      <path class="cls-3" d="M1920.25,960c0,127.37-50.6,249.52-140.66,339.59-90.06,90.06-212.22,140.66-339.59,140.66s-249.52-50.6-339.59-140.66c-90.06-90.06-140.66-212.22-140.66-339.59s50.6-249.52,140.66-339.59c90.06-90.06,212.22-140.66,339.59-140.66s249.52,50.6,339.59,140.66c90.06,90.06,140.66,212.22,140.66,339.59h0Z"/>
    </clipPath>
    <clipPath id="clippath-3">
      <rect class="cls-1" x="959.2" y="479.57" width="961.6" height="960.87"/>
    </clipPath>
  </defs>
  <g class="cls-7">
    <rect class="cls-5" x="-.09" width="2880.09" height="1920"/>
  </g>
  <g>
    <path class="cls-6" d="M301.12,960l1138.88,727.24,1138.88-727.24L1440,232.76,301.12,960Z"/>
    <path class="cls-9" d="M1920.25,960c0,127.37-50.6,249.52-140.66,339.59-90.06,90.06-212.22,140.66-339.59,140.66s-249.52-50.6-339.59-140.66c-90.06-90.06-140.66-212.22-140.66-339.59s50.6-249.52,140.66-339.59c90.06-90.06,212.22-140.66,339.59-140.66s249.52,50.6,339.59,140.66c90.06,90.06,140.66,212.22,140.66,339.59h0Z"/>
    <g class="cls-8">
      <path class="cls-4" d="M-.75,1920.5C-.75,1276.36,521.43,754.18,1165.57,754.18s1166.32,522.18,1166.32,1166.32h-68.61c0-606.25-491.46-1097.71-1097.71-1097.71S67.86,1314.25,67.86,1920.5H-.75Z"/>
    </g>
    <path class="cls-5" d="M1183.71,811.31l41.14,1.44,.3-8.49-33.31-1.16,.41-11.76,26.12,.91,.27-7.84-26.12-.91,.32-9.14,31.34,1.1,.3-8.49-39.18-1.37-1.59,45.71Z"/>
    <path class="cls-5" d="M1241.73,813.78l7.81,.69,2.74-31.24,6.37,32.05,7.16,.62,11.85-30.44-2.74,31.24,7.81,.69,3.99-45.57-11.39-.99-11.85,30.44-6.37-32.04-11.39-1-4,45.56h0Z"/>
    <path class="cls-5" d="M1336.49,824.47l33.81,5.81,1.33-7.73-26.08-4.48,1.77-10.3,21.25,3.65,1.33-7.73-21.25-3.65,1.21-7.08,25.28,4.35,1.33-7.73-33.01-5.67-6.97,40.57h0Z"/>
    <path class="cls-5" d="M1633.4,896.48l-15.88-6.9,2.6-5.99,15.88,6.9-2.6,5.99Z"/>
    <path class="cls-5" d="M1626.56,911.47l-5.99-2.6,9.12-20.97,5.99,2.6-9.12,20.97Z"/>
    <path class="cls-5" d="M1760.56,967.4c-2.46,3.86,.03,8.16,5.54,11.66,5.51,3.51,9.26,3.38,10.85,.91,5-7.86-23.92-19.3-15.01-33,7.68-11.76,20.84-2.61,25.8,.55,4.96,3.16,12.92,11.34,6.73,20.75l-8.41-5.36c2.64-4.14-.25-8.11-4.67-10.91-4.27-2.71-7.74-3.96-10.29,.03-4.26,6.38,24.09,18.44,15.4,32.08-6.4,10.05-17.55,5.66-24.99,.92-6.34-4.03-15.81-13.56-9.63-23.18l8.68,5.55Z"/>
    <path class="cls-5" d="M1693.83,945.01l35.82,20.27,4.18-7.39-29.01-16.41,5.79-10.24,22.75,12.87,3.86-6.83-22.75-12.87,4.51-7.96,27.29,15.44,4.18-7.39-34.12-19.3-22.51,39.8h0Z"/>
    <path class="cls-5" d="M1809.63,999.85c-2.65,3.72-.39,8.15,4.93,11.94,5.31,3.8,9.08,3.86,10.79,1.47,5.41-7.58-22.88-20.52-13.26-33.73,8.29-11.34,20.95-1.52,25.73,1.9,4.78,3.42,12.31,12,5.63,21.08l-8.11-5.78c2.84-3.99,.16-8.1-4.09-11.14-4.13-2.94-7.52-4.36-10.27-.5-4.59,6.16,23.09,19.68,13.69,32.84-6.92,9.7-17.83,4.74-25.01-.38-6.12-4.37-15.07-14.36-8.42-23.65l8.38,5.96h.01Z"/>
    <path class="cls-5" d="M1048.04,794.41c-1.53-12.53-11.94-21.58-23.21-20.19-11.28,1.38-19.18,12.67-17.65,25.21,1.54,12.53,11.94,21.57,23.22,20.19,11.28-1.39,19.18-12.67,17.64-25.21h0Zm-20.42-11.41c15.54,0,15.54,27.87,0,27.87s-15.55-27.87,0-27.87h0Z"/>
    <path class="cls-5" d="M1890.77,1045.16c5.81-11.21,2.34-24.55-7.76-29.78-10.09-5.23-22.99-.37-28.8,10.84s-2.33,24.54,7.76,29.78c10.1,5.22,22.99,.37,28.8-10.84h0Zm-10.41-20.96c12.83,8.78-2.92,31.79-15.74,23-12.83-8.78,2.92-31.78,15.74-23h0Z"/>
    <path class="cls-5" d="M1162.91,774.29c-5.04-8.12-15.2-8.5-15.2-8.5l-22.87,.36,.8,45.73s18.14,0,22.96-.45c4.82-.46,10.48-3.24,14.19-8.1,3.7-4.87,3.66-10.62,3.63-14.16s.53-8.38-3.5-14.88h-.01Zm-18.66,28.9c-3.51,0-10.27,.05-10.27,.05,0,0-.4-23.1-.5-28.74,9.46-.13,9.79-.13,13.45-.13,6.79,.12,9.65,5.18,11.08,8.45,.51,3.65,.54,5.12,.66,8.28-.42,3.39-1.43,6.19-4.29,8.87-4.71,3.16-7.09,3.22-10.13,3.22h0Z"/>
    <path class="cls-5" d="M1100.44,794.1s4.79-4.05,6.01-9.83c1.23-5.79-2.35-10.52-3.87-11.87s-4.71-4.57-9.43-4.38c-4.72,.18-28.02,1.81-28.02,1.81l2.54,45.68,8.47-.59-1.18-16.95,14.71-1.03,3.54-.25s4.56,7.46,4.99,12.06c.29,2.71,.26,5,.26,5h8.26s.21-8.13-2.14-13.01-4.13-6.62-4.13-6.62h0v-.02Zm-5.16-7.11c-1.78,1.49-6.79,1.55-6.79,1.55l-14.14,.94s-.56-7.98-.82-11.74c2.15,.02,13.39-.93,13.59-.93,2.27-.07,4.82-.3,4.82-.3,0,0,1.85,.06,3.7,1.66,.36,.24,1.9,1.61,1.85,3.93-.06,2.33-1.38,4.45-2.21,4.89h0Z"/>
    <path class="cls-5" d="M1583.53,863.66c1.73-12.52-6-23.92-17.25-25.47-11.26-1.56-21.79,7.33-23.52,19.83-1.73,12.52,6,23.91,17.25,25.47s21.79-7.33,23.52-19.83h0Zm-16.82-16.27c15.03,3.99,7.87,30.93-7.15,26.94s-7.87-30.93,7.15-26.94h0Z"/>
    <path class="cls-5" d="M1517.81,845.91s5.84-2.27,8.89-7.33c3.05-5.07,1.21-10.71,.22-12.49-.99-1.78-2.95-5.85-7.47-7.23-4.52-1.37-27.07-7.45-27.07-7.45l-12.54,43.99,8.2,2.22,4.42-16.4,14.24,3.84,3.42,.92s1.87,8.54,.78,13.02c-.61,2.65-1.4,4.82-1.4,4.82l7.79,2.7s2.86-7.62,2.23-12.99c-.63-5.38-1.72-7.62-1.72-7.62h0Zm-2.54-8.4c-2.18,.82-6.93-.76-6.93-.76l-13.68-3.74s2.08-7.72,3.06-11.35c2.02,.71,12.95,3.5,13.16,3.56,2.16,.68,4.66,1.3,4.66,1.3,0,0,1.73,.66,2.94,2.78,.26,.34,1.27,2.14,.46,4.32-.81,2.17-2.76,3.74-3.68,3.9h.01Z"/>
    <path class="cls-5" d="M1683.93,913.22s6.01-1.75,9.49-6.55,2.12-10.57,1.28-12.42c-.84-1.86-2.45-6.08-6.84-7.84-4.39-1.75-26.35-9.71-26.35-9.71l-16.22,42.77,7.98,2.9,5.8-15.97,13.86,5.03,3.34,1.21s1.13,8.66-.33,13.04c-.84,2.6-1.8,4.69-1.8,4.69l7.54,3.35s3.49-7.35,3.33-12.75c-.18-5.4-1.08-7.73-1.08-7.73h0v-.02Zm-1.82-8.58c-2.24,.63-6.83-1.35-6.83-1.35l-13.3-4.89s2.73-7.52,4.01-11.06c1.95,.89,12.61,4.58,12.81,4.67,2.1,.85,4.53,1.68,4.53,1.68,0,0,1.66,.81,2.7,3.02,.22,.36,1.09,2.24,.09,4.35-1,2.1-3.06,3.5-4,3.58h-.01Z"/>
    <path class="cls-5" d="M1461.53,830.64s5.78-2.41,8.72-7.55,.96-10.74-.07-12.49c-1.04-1.76-3.1-5.78-7.65-7.04-4.56-1.26-27.24-6.8-27.24-6.8l-11.48,44.27,8.25,2.01,4.03-16.5,14.33,3.5,3.45,.84m4.94-8.57c-2.15,.88-6.94-.6-6.94-.6l-13.76-3.41s1.89-7.77,2.79-11.43c2.04,.67,13.04,3.19,13.23,3.25,2.19,.62,4.68,1.19,4.68,1.19,0,0,1.74,.62,3.01,2.71,.27,.33,1.33,2.12,.57,4.31-.78,2.2-2.69,3.8-3.6,3.98h.02Z"/>
    <path class="cls-5" d="M1631.66,888.44c-1.18-.52-2.4-.89-3.64-1.27-3.58,6.75-11.5,11.55-18.55,6.71-12.83-8.77,2.92-31.78,15.74-22.99,3.1,2.12,4.5,5.06,4.71,8.2,1.94,.82,4.04,1.21,5.98,2.1,.82,.37,1.63,.77,2.44,1.14,.66-8.42-3.16-16.47-10.47-20.25-10.09-5.23-22.99-.37-28.8,10.83-5.81,11.21-2.34,24.54,7.76,29.78,10.09,5.23,22.99,.37,28.79-10.83,.23-.45,.42-.9,.62-1.35-1.54-.67-3.06-1.38-4.59-2.06h.01Z"/>
    <path class="cls-4" d="M1574.1,804.78h12.56l3.88-11.95,3.89,11.95h12.56l-10.16,7.38,3.89,11.95-10.17-7.39-10.15,7.39,3.88-11.95-10.16-7.38h-.02Z"/>
    <path class="cls-4" d="M1067.54,867.39h-14.96l-4.62-14.22-4.62,14.22h-14.96l12.09,8.79-4.62,14.22,12.1-8.79,12.09,8.79-4.62-14.22,12.1-8.79h.02Z"/>
    <path class="cls-4" d="M1585.05,931.58h-10.35l-3.19-9.85-3.16,9.85h-10.39l8.37,6.08-3.19,9.84,8.37-6.08,8.37,6.08-3.2-9.84,8.38-6.08h-.01Z"/>
    <path class="cls-4" d="M1145.32,1044.25h-6.29l-1.94-5.99-1.95,5.99h-6.29l5.12,3.58-1.98,6.1,5.09-3.7,5.09,3.7-1.95-5.99,5.09-3.7h.01Z"/>
    <polyline class="cls-4" points="1090.35 1055.07 1085.8 1069.29 1070.86 1069.29 1082.95 1078.08 1078.33 1092.3 1090.43 1083.51 1102.53 1092.3 1097.91 1078.08 1110.01 1069.29 1095.05 1069.29 1090.43 1055.07"/>
    <path class="cls-4" d="M1047.93,1113.48h-12.46l-3.85-11.86-3.85,11.86h-12.46l10.08,7.32-3.85,11.85,10.08-7.33,10.08,7.33-3.85-11.85,10.08-7.33h0Z"/>
    <path class="cls-4" d="M1273.33,973.99h-12.21l-3.78-11.62-3.77,11.62h-12.21l9.88,7.17-3.78,11.62,9.88-7.18,9.88,7.18-3.78-11.62,9.89-7.17Z"/>
    <path class="cls-4" d="M1206.26,1117.41h-11.26l-3.49-10.7-3.48,10.7h-11.27l9.11,6.62-3.48,10.71,9.11-6.62,9.11,6.62-3.48-10.71,9.12-6.62h.01Z"/>
    <path class="cls-4" d="M1190.32,1167.67h-10.34l-3.19-9.84-3.16,9.84h-10.4l8.38,6.08-3.2,9.84,8.38-6.08,8.37,6.08-3.2-9.84,8.37-6.08h-.01Z"/>
    <path class="cls-4" d="M1267.23,1205.92h-14.96l-4.62-14.22-4.62,14.22h-14.96l12.1,8.79-4.62,14.22,12.09-8.79,12.1,8.79-4.63-14.22,12.1-8.79h.02Z"/>
    <path class="cls-4" d="M1456.44,1033.52h-12.61l-3.83-11.95-3.88,11.95h-12.57l10.17,7.38-3.88,11.95,10.16-7.39,10.16,7.39-3.88-11.95,10.15-7.38h0Z"/>
    <path class="cls-4" d="M1405,1076.77h-10.35l-3.19-9.84-3.2,9.84h-10.35l8.37,6.08-3.19,9.84,8.34-6.1,8.4,6.1-3.2-9.84,8.37-6.08h0Z"/>
    <path class="cls-4" d="M1423.73,1109.88h-6.29l-1.94-5.98-1.95,5.98h-6.29l5.09,3.71-1.94,5.98,5.09-3.7,5.09,3.7-1.95-5.99,5.09-3.7Z"/>
    <path class="cls-4" d="M1511.95,1075.49h-12.56l-3.89-11.95-3.81,11.95h-12.62l10.16,7.38-3.88,11.95,10.15-7.39,10.17,7.39-3.89-11.95,10.16-7.38h.01Z"/>
    <path class="cls-4" d="M1459.58,1171.41h-14.96l-4.62-14.22-4.56,14.22h-15.02l12.1,8.79-4.63,14.22,12.1-8.79,12.09,8.79-4.62-14.22,12.1-8.79h.02Z"/>
    <path class="cls-4" d="M1445.97,1333.64h-4.79l-1.48-4.55-1.46,4.55h-4.82l3.89,2.82-1.48,4.56,3.88-2.82,3.88,2.82-1.48-4.56,3.88-2.82h-.02Z"/>
    <path class="cls-4" d="M1559.28,1225.17h-10.34l-3.19-9.85-3.16,9.85h-10.4l8.38,6.08-3.2,9.84,8.38-6.08,8.37,6.08-3.2-9.84,8.37-6.08h-.01Z"/>
    <path class="cls-4" d="M1599.99,1277.89h-12.56l-3.89-11.95-3.88,11.95h-12.56l10.16,7.38-3.89,11.95,10.16-7.39,10.17,7.39-3.89-11.95,10.16-7.38h.02Z"/>
    <path class="cls-4" d="M1619.94,1242.17l-3.2,9.84,8.38-6.08,8.37,6.08-3.2-9.84,8.37-6.08h-10.35l-3.19-9.84-3.16,9.84h-10.4l8.38,6.08h0Z"/>
    <path class="cls-4" d="M1692.06,1220.14h-10.35l-3.19-9.85-3.2,9.85h-10.35l8.37,6.08-3.19,9.84,8.37-6.08,8.37,6.08-3.2-9.84,8.37-6.08h0Z"/>
    <path class="cls-4" d="M1696.2,1265.56h-12.56l-3.89-11.95-3.88,11.95h-12.56l10.17,7.37-3.89,11.95,10.16-7.39,10.16,7.39-3.88-11.95,10.16-7.37h.01Z"/>
    <path class="cls-4" d="M1694.44,1315.71h-10.39l-3.16-9.84-3.15,9.84h-10.4l8.37,6.08-3.19,9.84,8.37-6.08,8.37,6.08-3.19-9.84,8.37-6.08Z"/>
    <path class="cls-4" d="M1742.25,1228.73h-10.35l-3.2-9.83-3.2,9.83h-10.35l8.37,6.08-3.19,9.85,8.37-6.08,8.37,6.08-3.19-9.85,8.37-6.08h0Z"/>
    <polyline class="cls-4" points="1750.69 1203.86 1760.85 1211.24 1756.97 1223.19 1767.14 1215.8 1777.3 1223.19 1773.41 1211.24 1783.58 1203.86 1771.01 1203.86 1767.13 1191.91 1763.31 1203.86 1750.98 1203.79"/>
    <path class="cls-4" d="M1812.44,1166.39h-12.56l-3.88-11.95-3.89,11.95h-12.56l10.16,7.38-3.88,11.95,10.16-7.39,10.17,7.39-3.89-11.95,10.16-7.38h.01Z"/>
    <path class="cls-4" d="M1796,1121.87h-14.96l-4.62-14.22-4.63,14.22h-14.95l12.09,8.78-4.62,14.22,12.1-8.79,12.09,8.79-4.62-14.22,12.1-8.78h.02Z"/>
    <path class="cls-4" d="M1857.21,1129.11h-10.34l-3.2-9.84-3.15,9.84h-10.4l8.37,6.08-3.19,9.85,8.37-6.08,8.37,6.08-3.2-9.85,8.38-6.08h-.01Z"/>
  </g>
</svg>